<?xml version="1.0" standalone="yes"?>
<svg xmlns="http://www.w3.org/2000/svg" width="800" height="400">
<path style="fill:#cf1228; stroke:none;" d="M0 0C0 7.08038 -3.06998 23.4932 1.02778 29.3627C4.43382 34.2413 14.7721 37.1391 20 39.7531L67 63.2469L161 110.247C175.107 117.301 191.582 129.277 207 132.61C224.744 136.445 246.829 133 265 133L265 132C174.087 94.1497 90.9122 37.8499 0 0z"/>
<path style="fill:#a7b7d3; stroke:none;" d="M1 0L2 1L1 0z"/>
<path style="fill:#fefdfe; stroke:none;" d="M2 0L2 1C64.0984 26.8538 123.818 61.6622 184 91.7531L240 119.753C248.268 123.887 259.473 127.403 266 134C248.138 134 226.443 137.38 209 133.61C189.002 129.286 167.319 113.407 149 104.247C99.7302 79.612 50.8391 51.1661 0 30L1.02778 44.3627L13 51.2469L41 65.2469L177 133L177 134L0 134L0 160L360 160L360 0L334 0L334 122C274.291 97.1411 216.866 63.686 159 34.7531C137.187 23.8468 113.436 7.28894 90 0.637329C81.3128 -1.82828 69.9948 0 61 0L2 0z"/>
<path style="fill:#7a90bc; stroke:none;" d="M90 0L91 1L90 0z"/>
<path style="fill:#012b7f; stroke:none;" d="M91 0L91 1C150.026 25.5748 206.795 58.6446 264 87.2469C285.965 98.2293 309.421 114.207 333 121L333 0L91 0z"/>
<path style="fill:#a7b7d3; stroke:none;" d="M333 0L333 122L334 122L334 37C334 26.366 337.108 9.78925 333 0z"/>
<path style="fill:#cf1228; stroke:none;" d="M360 0L360 160L0 160L0 240L360 240L360 400L440 400L440 240L800 240L800 160L440 160L440 0L360 0z"/>
<path style="fill:#fefdfe; stroke:none;" d="M440 0L440 160L800 160L800 134L623 134L623 133L751 69.2469L785 52.2469L798.972 44.3627L800 32L800 1C777.096 7.59814 754.334 23.0859 733 33.7531L596 102.247L554 123.247C547.126 126.684 539.548 131.978 532 133.61C514.557 137.38 492.862 134 475 134C481.527 127.403 492.732 123.887 501 119.753L557 91.7531C617.182 61.6621 676.902 26.854 739 1L739 0C730.107 0 719.704 -1.49112 711 0.390442C702.794 2.16443 694.479 8.01367 687 11.7531L639 35.7531C581.795 64.3554 525.026 97.4253 466 122L466 0L440 0z"/>
<path style="fill:#a7b7d3; stroke:none;" d="M466 0L466 122L467 122L467 37C467 26.3661 470.108 9.78922 466 0z"/>
<path style="fill:#012b7f; stroke:none;" d="M467 0L467 121C490.579 114.207 514.035 98.2293 536 87.2469C593.205 58.6445 649.974 25.575 709 1L687 0L638 0L467 0z"/>
<path style="fill:#7a90bc; stroke:none;" d="M709 0L710 1L709 0M739 0L740 1L739 0z"/>
<path style="fill:#cf1228; stroke:none;" d="M476 132L476 133L534 132.61L574 113.247L656 72.2469L798 1C791.081 -1.9032 780.48 0 773 0C762.876 0 750.906 -1.75092 741 0.390442C724.273 4.00638 706.311 17.0977 691 24.7531L550 95.2469C525.525 107.484 501.256 121.485 476 132z"/>
<path style="fill:#7a90bc; stroke:none;" d="M798 0L799 1L798 0z"/>
<path style="fill:#a7b7d3; stroke:none;" d="M799 0L800 1L799 0M3 1L4 2L3 1z"/>
<path style="fill:#7a90bc; stroke:none;" d="M92 1L93 2L92 1M707 1L708 2L707 1z"/>
<path style="fill:#a7b7d3; stroke:none;" d="M737 1L738 2L737 1M797 1L798 2L797 1M5 2L6 3L5 2z"/>
<path style="fill:#7a90bc; stroke:none;" d="M94 2L95 3L94 2M705 2L706 3L705 2z"/>
<path style="fill:#a7b7d3; stroke:none;" d="M735 2L736 3L735 2M795 2L796 3L795 2M7 3L8 4L7 3z"/>
<path style="fill:#7a90bc; stroke:none;" d="M96 3L97 4L96 3M703 3L704 4L703 3M733 3L734 4L733 3z"/>
<path style="fill:#a7b7d3; stroke:none;" d="M793 3L794 4L793 3M9 4L10 5L9 4z"/>
<path style="fill:#7a90bc; stroke:none;" d="M98 4L99 5L98 4M701 4L702 5L701 4M731 4L732 5L731 4z"/>
<path style="fill:#a7b7d3; stroke:none;" d="M791 4L792 5L791 4M11 5L12 6L11 5z"/>
<path style="fill:#7a90bc; stroke:none;" d="M100 5L101 6L100 5M699 5L700 6L699 5M729 5L730 6L729 5z"/>
<path style="fill:#a7b7d3; stroke:none;" d="M789 5L790 6L789 5M13 6L14 7L13 6z"/>
<path style="fill:#7a90bc; stroke:none;" d="M102 6L103 7L102 6M697 6L698 7L697 6M727 6L728 7L727 6z"/>
<path style="fill:#a7b7d3; stroke:none;" d="M787 6L788 7L787 6M15 7L16 8L15 7z"/>
<path style="fill:#7a90bc; stroke:none;" d="M104 7L105 8L104 7M695 7L696 8L695 7M725 7L726 8L725 7z"/>
<path style="fill:#a7b7d3; stroke:none;" d="M785 7L786 8L785 7M17 8L18 9L17 8z"/>
<path style="fill:#7a90bc; stroke:none;" d="M106 8L107 9L106 8M693 8L694 9L693 8z"/>
<path style="fill:#a7b7d3; stroke:none;" d="M723 8L724 9L723 8M783 8L784 9L783 8M19 9L20 10L19 9z"/>
<path style="fill:#7a90bc; stroke:none;" d="M108 9L109 10L108 9M691 9L692 10L691 9z"/>
<path style="fill:#a7b7d3; stroke:none;" d="M721 9L722 10L721 9M781 9L782 10L781 9M21 10L22 11L21 10z"/>
<path style="fill:#7a90bc; stroke:none;" d="M110 10L111 11L110 10M689 10L690 11L689 10z"/>
<path style="fill:#a7b7d3; stroke:none;" d="M719 10L720 11L719 10M779 10L780 11L779 10M23 11L24 12L23 11z"/>
<path style="fill:#7a90bc; stroke:none;" d="M112 11L113 12L112 11M687 11L688 12L687 11M717 11L718 12L717 11z"/>
<path style="fill:#a7b7d3; stroke:none;" d="M777 11L778 12L777 11M25 12L26 13L25 12z"/>
<path style="fill:#7a90bc; stroke:none;" d="M114 12L115 13L114 12M685 12L686 13L685 12M715 12L716 13L715 12z"/>
<path style="fill:#a7b7d3; stroke:none;" d="M775 12L776 13L775 12M27 13L28 14L27 13z"/>
<path style="fill:#7a90bc; stroke:none;" d="M116 13L117 14L116 13M683 13L684 14L683 13M713 13L714 14L713 13z"/>
<path style="fill:#a7b7d3; stroke:none;" d="M773 13L774 14L773 13M29 14L30 15L29 14z"/>
<path style="fill:#7a90bc; stroke:none;" d="M118 14L119 15L118 14M681 14L682 15L681 14M711 14L712 15L711 14z"/>
<path style="fill:#a7b7d3; stroke:none;" d="M771 14L772 15L771 14M31 15L32 16L31 15z"/>
<path style="fill:#7a90bc; stroke:none;" d="M120 15L121 16L120 15M679 15L680 16L679 15M709 15L710 16L709 15z"/>
<path style="fill:#a7b7d3; stroke:none;" d="M769 15L770 16L769 15M33 16L34 17L33 16z"/>
<path style="fill:#7a90bc; stroke:none;" d="M122 16L123 17L122 16M677 16L678 17L677 16z"/>
<path style="fill:#a7b7d3; stroke:none;" d="M707 16L708 17L707 16M767 16L768 17L767 16M35 17L36 18L35 17z"/>
<path style="fill:#7a90bc; stroke:none;" d="M124 17L125 18L124 17M675 17L676 18L675 17z"/>
<path style="fill:#a7b7d3; stroke:none;" d="M705 17L706 18L705 17M765 17L766 18L765 17M37 18L38 19L37 18z"/>
<path style="fill:#7a90bc; stroke:none;" d="M126 18L127 19L126 18M673 18L674 19L673 18z"/>
<path style="fill:#a7b7d3; stroke:none;" d="M703 18L704 19L703 18M763 18L764 19L763 18M39 19L40 20L39 19z"/>
<path style="fill:#7a90bc; stroke:none;" d="M128 19L129 20L128 19M671 19L672 20L671 19M701 19L702 20L701 19z"/>
<path style="fill:#a7b7d3; stroke:none;" d="M761 19L762 20L761 19M41 20L42 21L41 20z"/>
<path style="fill:#7a90bc; stroke:none;" d="M130 20L131 21L130 20M669 20L670 21L669 20M699 20L700 21L699 20z"/>
<path style="fill:#a7b7d3; stroke:none;" d="M759 20L760 21L759 20M43 21L44 22L43 21z"/>
<path style="fill:#7a90bc; stroke:none;" d="M132 21L133 22L132 21M667 21L668 22L667 21M697 21L698 22L697 21z"/>
<path style="fill:#a7b7d3; stroke:none;" d="M757 21L758 22L757 21M45 22L46 23L45 22z"/>
<path style="fill:#7a90bc; stroke:none;" d="M134 22L135 23L134 22M665 22L666 23L665 22M695 22L696 23L695 22z"/>
<path style="fill:#a7b7d3; stroke:none;" d="M755 22L756 23L755 22M47 23L48 24L47 23z"/>
<path style="fill:#7a90bc; stroke:none;" d="M136 23L137 24L136 23M663 23L664 24L663 23M693 23L694 24L693 23z"/>
<path style="fill:#a7b7d3; stroke:none;" d="M753 23L754 24L753 23M49 24L50 25L49 24z"/>
<path style="fill:#7a90bc; stroke:none;" d="M138 24L139 25L138 24M661 24L662 25L661 24z"/>
<path style="fill:#a7b7d3; stroke:none;" d="M691 24L692 25L691 24M751 24L752 25L751 24M51 25L52 26L51 25z"/>
<path style="fill:#7a90bc; stroke:none;" d="M140 25L141 26L140 25M659 25L660 26L659 25z"/>
<path style="fill:#a7b7d3; stroke:none;" d="M689 25L690 26L689 25M749 25L750 26L749 25M53 26L54 27L53 26z"/>
<path style="fill:#7a90bc; stroke:none;" d="M142 26L143 27L142 26M657 26L658 27L657 26z"/>
<path style="fill:#a7b7d3; stroke:none;" d="M687 26L688 27L687 26M747 26L748 27L747 26M55 27L56 28L55 27z"/>
<path style="fill:#7a90bc; stroke:none;" d="M144 27L145 28L144 27M655 27L656 28L655 27M685 27L686 28L685 27z"/>
<path style="fill:#a7b7d3; stroke:none;" d="M745 27L746 28L745 27M57 28L58 29L57 28z"/>
<path style="fill:#7a90bc; stroke:none;" d="M146 28L147 29L146 28M653 28L654 29L653 28M683 28L684 29L683 28z"/>
<path style="fill:#a7b7d3; stroke:none;" d="M743 28L744 29L743 28M59 29L60 30L59 29z"/>
<path style="fill:#7a90bc; stroke:none;" d="M148 29L149 30L148 29M651 29L652 30L651 29M681 29L682 30L681 29z"/>
<path style="fill:#a7b7d3; stroke:none;" d="M741 29L742 30L741 29M1 30L2 31L1 30M61 30L62 31L61 30z"/>
<path style="fill:#7a90bc; stroke:none;" d="M150 30L151 31L150 30M649 30L650 31L649 30M679 30L680 31L679 30z"/>
<path style="fill:#a7b7d3; stroke:none;" d="M739 30L740 31L739 30M3 31L4 32L3 31M63 31L64 32L63 31z"/>
<path style="fill:#7a90bc; stroke:none;" d="M152 31L153 32L152 31M647 31L648 32L647 31M677 31L678 32L677 31z"/>
<path style="fill:#a7b7d3; stroke:none;" d="M737 31L738 32L737 31z"/>
<path style="fill:#7a90bc; stroke:none;" d="M5 32L6 33L5 32z"/>
<path style="fill:#a7b7d3; stroke:none;" d="M65 32L66 33L65 32z"/>
<path style="fill:#7a90bc; stroke:none;" d="M154 32L155 33L154 32M645 32L646 33L645 32z"/>
<path style="fill:#a7b7d3; stroke:none;" d="M675 32L676 33L675 32M735 32L736 33L735 32z"/>
<path style="fill:#7a90bc; stroke:none;" d="M7 33L8 34L7 33z"/>
<path style="fill:#a7b7d3; stroke:none;" d="M67 33L68 34L67 33z"/>
<path style="fill:#7a90bc; stroke:none;" d="M156 33L157 34L156 33M643 33L644 34L643 33z"/>
<path style="fill:#a7b7d3; stroke:none;" d="M673 33L674 34L673 33M733 33L734 34L733 33z"/>
<path style="fill:#7a90bc; stroke:none;" d="M9 34L10 35L9 34z"/>
<path style="fill:#a7b7d3; stroke:none;" d="M69 34L70 35L69 34z"/>
<path style="fill:#7a90bc; stroke:none;" d="M158 34L159 35L158 34M641 34L642 35L641 34z"/>
<path style="fill:#a7b7d3; stroke:none;" d="M671 34L672 35L671 34M731 34L732 35L731 34z"/>
<path style="fill:#7a90bc; stroke:none;" d="M11 35L12 36L11 35z"/>
<path style="fill:#a7b7d3; stroke:none;" d="M71 35L72 36L71 35z"/>
<path style="fill:#7a90bc; stroke:none;" d="M160 35L161 36L160 35M639 35L640 36L639 35M669 35L670 36L669 35z"/>
<path style="fill:#a7b7d3; stroke:none;" d="M729 35L730 36L729 35z"/>
<path style="fill:#7a90bc; stroke:none;" d="M13 36L14 37L13 36z"/>
<path style="fill:#a7b7d3; stroke:none;" d="M73 36L74 37L73 36z"/>
<path style="fill:#7a90bc; stroke:none;" d="M162 36L163 37L162 36M637 36L638 37L637 36M667 36L668 37L667 36z"/>
<path style="fill:#a7b7d3; stroke:none;" d="M727 36L728 37L727 36M15 37L16 38L15 37M75 37L76 38L75 37z"/>
<path style="fill:#7a90bc; stroke:none;" d="M164 37L165 38L164 37M635 37L636 38L635 37M665 37L666 38L665 37z"/>
<path style="fill:#a7b7d3; stroke:none;" d="M725 37L726 38L725 37M17 38L18 39L17 38M77 38L78 39L77 38z"/>
<path style="fill:#7a90bc; stroke:none;" d="M166 38L167 39L166 38M633 38L634 39L633 38M663 38L664 39L663 38z"/>
<path style="fill:#a7b7d3; stroke:none;" d="M723 38L724 39L723 38M19 39L20 40L19 39M79 39L80 40L79 39z"/>
<path style="fill:#7a90bc; stroke:none;" d="M168 39L169 40L168 39M631 39L632 40L631 39M661 39L662 40L661 39z"/>
<path style="fill:#a7b7d3; stroke:none;" d="M721 39L722 40L721 39z"/>
<path style="fill:#7a90bc; stroke:none;" d="M21 40L22 41L21 40z"/>
<path style="fill:#a7b7d3; stroke:none;" d="M81 40L82 41L81 40z"/>
<path style="fill:#7a90bc; stroke:none;" d="M170 40L171 41L170 40M629 40L630 41L629 40z"/>
<path style="fill:#a7b7d3; stroke:none;" d="M659 40L660 41L659 40M719 40L720 41L719 40z"/>
<path style="fill:#7a90bc; stroke:none;" d="M23 41L24 42L23 41z"/>
<path style="fill:#a7b7d3; stroke:none;" d="M83 41L84 42L83 41z"/>
<path style="fill:#7a90bc; stroke:none;" d="M172 41L173 42L172 41M627 41L628 42L627 41z"/>
<path style="fill:#a7b7d3; stroke:none;" d="M657 41L658 42L657 41M717 41L718 42L717 41z"/>
<path style="fill:#7a90bc; stroke:none;" d="M25 42L26 43L25 42z"/>
<path style="fill:#a7b7d3; stroke:none;" d="M85 42L86 43L85 42z"/>
<path style="fill:#7a90bc; stroke:none;" d="M174 42L175 43L174 42M625 42L626 43L625 42z"/>
<path style="fill:#a7b7d3; stroke:none;" d="M655 42L656 43L655 42M715 42L716 43L715 42z"/>
<path style="fill:#7a90bc; stroke:none;" d="M27 43L28 44L27 43z"/>
<path style="fill:#a7b7d3; stroke:none;" d="M87 43L88 44L87 43z"/>
<path style="fill:#7a90bc; stroke:none;" d="M176 43L177 44L176 43M623 43L624 44L623 43M653 43L654 44L653 43z"/>
<path style="fill:#a7b7d3; stroke:none;" d="M713 43L714 44L713 43z"/>
<path style="fill:#7a90bc; stroke:none;" d="M29 44L30 45L29 44z"/>
<path style="fill:#a7b7d3; stroke:none;" d="M89 44L90 45L89 44z"/>
<path style="fill:#7a90bc; stroke:none;" d="M178 44L179 45L178 44M621 44L622 45L621 44M651 44L652 45L651 44z"/>
<path style="fill:#a7b7d3; stroke:none;" d="M711 44L712 45L711 44z"/>
<path style="fill:#012b7f; stroke:none;" d="M0 45L0 133L175 133L175 132L0 45z"/>
<path style="fill:#7a90bc; stroke:none;" d="M1 45L2 46L1 45z"/>
<path style="fill:#a7b7d3; stroke:none;" d="M31 45L32 46L31 45M91 45L92 46L91 45z"/>
<path style="fill:#7a90bc; stroke:none;" d="M180 45L181 46L180 45M619 45L620 46L619 45M649 45L650 46L649 45z"/>
<path style="fill:#a7b7d3; stroke:none;" d="M709 45L710 46L709 45z"/>
<path style="fill:#7a90bc; stroke:none;" d="M798 45L799 46L798 45z"/>
<path style="fill:#012b7f; stroke:none;" d="M799 45L711 89.2469L625 132L625 133L800 133L800 72L799 45z"/>
<path style="fill:#7a90bc; stroke:none;" d="M3 46L4 47L3 46z"/>
<path style="fill:#a7b7d3; stroke:none;" d="M33 46L34 47L33 46M93 46L94 47L93 46z"/>
<path style="fill:#7a90bc; stroke:none;" d="M182 46L183 47L182 46M617 46L618 47L617 46M647 46L648 47L647 46z"/>
<path style="fill:#a7b7d3; stroke:none;" d="M707 46L708 47L707 46z"/>
<path style="fill:#7a90bc; stroke:none;" d="M796 46L797 47L796 46M5 47L6 48L5 47z"/>
<path style="fill:#a7b7d3; stroke:none;" d="M35 47L36 48L35 47M95 47L96 48L95 47z"/>
<path style="fill:#7a90bc; stroke:none;" d="M184 47L185 48L184 47M615 47L616 48L615 47M645 47L646 48L645 47z"/>
<path style="fill:#a7b7d3; stroke:none;" d="M705 47L706 48L705 47z"/>
<path style="fill:#7a90bc; stroke:none;" d="M794 47L795 48L794 47M7 48L8 49L7 48M37 48L38 49L37 48z"/>
<path style="fill:#a7b7d3; stroke:none;" d="M97 48L98 49L97 48z"/>
<path style="fill:#7a90bc; stroke:none;" d="M186 48L187 49L186 48M613 48L614 49L613 48z"/>
<path style="fill:#a7b7d3; stroke:none;" d="M643 48L644 49L643 48M703 48L704 49L703 48z"/>
<path style="fill:#7a90bc; stroke:none;" d="M792 48L793 49L792 48M9 49L10 50L9 49M39 49L40 50L39 49z"/>
<path style="fill:#a7b7d3; stroke:none;" d="M99 49L100 50L99 49z"/>
<path style="fill:#7a90bc; stroke:none;" d="M188 49L189 50L188 49M611 49L612 50L611 49z"/>
<path style="fill:#a7b7d3; stroke:none;" d="M641 49L642 50L641 49M701 49L702 50L701 49z"/>
<path style="fill:#7a90bc; stroke:none;" d="M790 49L791 50L790 49M11 50L12 51L11 50M41 50L42 51L41 50z"/>
<path style="fill:#a7b7d3; stroke:none;" d="M101 50L102 51L101 50z"/>
<path style="fill:#7a90bc; stroke:none;" d="M190 50L191 51L190 50M609 50L610 51L609 50z"/>
<path style="fill:#a7b7d3; stroke:none;" d="M639 50L640 51L639 50M699 50L700 51L699 50z"/>
<path style="fill:#7a90bc; stroke:none;" d="M788 50L789 51L788 50M13 51L14 52L13 51M43 51L44 52L43 51z"/>
<path style="fill:#a7b7d3; stroke:none;" d="M103 51L104 52L103 51z"/>
<path style="fill:#7a90bc; stroke:none;" d="M192 51L193 52L192 51M607 51L608 52L607 51M637 51L638 52L637 51z"/>
<path style="fill:#a7b7d3; stroke:none;" d="M697 51L698 52L697 51z"/>
<path style="fill:#7a90bc; stroke:none;" d="M786 51L787 52L786 51M15 52L16 53L15 52M45 52L46 53L45 52z"/>
<path style="fill:#a7b7d3; stroke:none;" d="M105 52L106 53L105 52z"/>
<path style="fill:#7a90bc; stroke:none;" d="M194 52L195 53L194 52M605 52L606 53L605 52M635 52L636 53L635 52z"/>
<path style="fill:#a7b7d3; stroke:none;" d="M695 52L696 53L695 52z"/>
<path style="fill:#7a90bc; stroke:none;" d="M784 52L785 53L784 52M17 53L18 54L17 53z"/>
<path style="fill:#a7b7d3; stroke:none;" d="M47 53L48 54L47 53M107 53L108 54L107 53z"/>
<path style="fill:#7a90bc; stroke:none;" d="M196 53L197 54L196 53M603 53L604 54L603 53M633 53L634 54L633 53z"/>
<path style="fill:#a7b7d3; stroke:none;" d="M693 53L694 54L693 53z"/>
<path style="fill:#7a90bc; stroke:none;" d="M782 53L783 54L782 53M19 54L20 55L19 54z"/>
<path style="fill:#a7b7d3; stroke:none;" d="M49 54L50 55L49 54M109 54L110 55L109 54z"/>
<path style="fill:#7a90bc; stroke:none;" d="M198 54L199 55L198 54M601 54L602 55L601 54M631 54L632 55L631 54z"/>
<path style="fill:#a7b7d3; stroke:none;" d="M691 54L692 55L691 54z"/>
<path style="fill:#7a90bc; stroke:none;" d="M780 54L781 55L780 54M21 55L22 56L21 55z"/>
<path style="fill:#a7b7d3; stroke:none;" d="M51 55L52 56L51 55M111 55L112 56L111 55z"/>
<path style="fill:#7a90bc; stroke:none;" d="M200 55L201 56L200 55M599 55L600 56L599 55M629 55L630 56L629 55z"/>
<path style="fill:#a7b7d3; stroke:none;" d="M689 55L690 56L689 55z"/>
<path style="fill:#7a90bc; stroke:none;" d="M778 55L779 56L778 55M23 56L24 57L23 56M53 56L54 57L53 56z"/>
<path style="fill:#a7b7d3; stroke:none;" d="M113 56L114 57L113 56z"/>
<path style="fill:#7a90bc; stroke:none;" d="M202 56L203 57L202 56M597 56L598 57L597 56z"/>
<path style="fill:#a7b7d3; stroke:none;" d="M627 56L628 57L627 56M687 56L688 57L687 56z"/>
<path style="fill:#7a90bc; stroke:none;" d="M776 56L777 57L776 56M25 57L26 58L25 57M55 57L56 58L55 57z"/>
<path style="fill:#a7b7d3; stroke:none;" d="M115 57L116 58L115 57z"/>
<path style="fill:#7a90bc; stroke:none;" d="M204 57L205 58L204 57M595 57L596 58L595 57z"/>
<path style="fill:#a7b7d3; stroke:none;" d="M625 57L626 58L625 57M685 57L686 58L685 57z"/>
<path style="fill:#7a90bc; stroke:none;" d="M774 57L775 58L774 57M27 58L28 59L27 58M57 58L58 59L57 58z"/>
<path style="fill:#a7b7d3; stroke:none;" d="M117 58L118 59L117 58z"/>
<path style="fill:#7a90bc; stroke:none;" d="M206 58L207 59L206 58M593 58L594 59L593 58z"/>
<path style="fill:#a7b7d3; stroke:none;" d="M623 58L624 59L623 58M683 58L684 59L683 58z"/>
<path style="fill:#7a90bc; stroke:none;" d="M772 58L773 59L772 58M29 59L30 60L29 59M59 59L60 60L59 59z"/>
<path style="fill:#a7b7d3; stroke:none;" d="M119 59L120 60L119 59z"/>
<path style="fill:#7a90bc; stroke:none;" d="M208 59L209 60L208 59M591 59L592 60L591 59M621 59L622 60L621 59z"/>
<path style="fill:#a7b7d3; stroke:none;" d="M681 59L682 60L681 59z"/>
<path style="fill:#7a90bc; stroke:none;" d="M770 59L771 60L770 59M31 60L32 61L31 60M61 60L62 61L61 60z"/>
<path style="fill:#a7b7d3; stroke:none;" d="M121 60L122 61L121 60z"/>
<path style="fill:#7a90bc; stroke:none;" d="M210 60L211 61L210 60M589 60L590 61L589 60M619 60L620 61L619 60z"/>
<path style="fill:#a7b7d3; stroke:none;" d="M679 60L680 61L679 60z"/>
<path style="fill:#7a90bc; stroke:none;" d="M768 60L769 61L768 60M33 61L34 62L33 61z"/>
<path style="fill:#a7b7d3; stroke:none;" d="M63 61L64 62L63 61M123 61L124 62L123 61z"/>
<path style="fill:#7a90bc; stroke:none;" d="M212 61L213 62L212 61M587 61L588 62L587 61M617 61L618 62L617 61z"/>
<path style="fill:#a7b7d3; stroke:none;" d="M677 61L678 62L677 61z"/>
<path style="fill:#7a90bc; stroke:none;" d="M766 61L767 62L766 61M35 62L36 63L35 62z"/>
<path style="fill:#a7b7d3; stroke:none;" d="M65 62L66 63L65 62M125 62L126 63L125 62z"/>
<path style="fill:#7a90bc; stroke:none;" d="M214 62L215 63L214 62M585 62L586 63L585 62M615 62L616 63L615 62z"/>
<path style="fill:#a7b7d3; stroke:none;" d="M675 62L676 63L675 62z"/>
<path style="fill:#7a90bc; stroke:none;" d="M764 62L765 63L764 62M37 63L38 64L37 63z"/>
<path style="fill:#a7b7d3; stroke:none;" d="M67 63L68 64L67 63M127 63L128 64L127 63z"/>
<path style="fill:#7a90bc; stroke:none;" d="M216 63L217 64L216 63M583 63L584 64L583 63M613 63L614 64L613 63z"/>
<path style="fill:#a7b7d3; stroke:none;" d="M673 63L674 64L673 63z"/>
<path style="fill:#7a90bc; stroke:none;" d="M762 63L763 64L762 63M39 64L40 65L39 64M69 64L70 65L69 64z"/>
<path style="fill:#a7b7d3; stroke:none;" d="M129 64L130 65L129 64z"/>
<path style="fill:#7a90bc; stroke:none;" d="M218 64L219 65L218 64M581 64L582 65L581 64z"/>
<path style="fill:#a7b7d3; stroke:none;" d="M611 64L612 65L611 64M671 64L672 65L671 64z"/>
<path style="fill:#7a90bc; stroke:none;" d="M760 64L761 65L760 64M41 65L42 66L41 65M71 65L72 66L71 65z"/>
<path style="fill:#a7b7d3; stroke:none;" d="M131 65L132 66L131 65z"/>
<path style="fill:#7a90bc; stroke:none;" d="M220 65L221 66L220 65M579 65L580 66L579 65z"/>
<path style="fill:#a7b7d3; stroke:none;" d="M609 65L610 66L609 65M669 65L670 66L669 65z"/>
<path style="fill:#7a90bc; stroke:none;" d="M758 65L759 66L758 65M43 66L44 67L43 66M73 66L74 67L73 66z"/>
<path style="fill:#a7b7d3; stroke:none;" d="M133 66L134 67L133 66z"/>
<path style="fill:#7a90bc; stroke:none;" d="M222 66L223 67L222 66M577 66L578 67L577 66z"/>
<path style="fill:#a7b7d3; stroke:none;" d="M607 66L608 67L607 66M667 66L668 67L667 66z"/>
<path style="fill:#7a90bc; stroke:none;" d="M756 66L757 67L756 66M45 67L46 68L45 67M75 67L76 68L75 67z"/>
<path style="fill:#a7b7d3; stroke:none;" d="M135 67L136 68L135 67z"/>
<path style="fill:#7a90bc; stroke:none;" d="M224 67L225 68L224 67M575 67L576 68L575 67M605 67L606 68L605 67z"/>
<path style="fill:#a7b7d3; stroke:none;" d="M665 67L666 68L665 67z"/>
<path style="fill:#7a90bc; stroke:none;" d="M754 67L755 68L754 67M47 68L48 69L47 68M77 68L78 69L77 68z"/>
<path style="fill:#a7b7d3; stroke:none;" d="M137 68L138 69L137 68z"/>
<path style="fill:#7a90bc; stroke:none;" d="M226 68L227 69L226 68M573 68L574 69L573 68M603 68L604 69L603 68z"/>
<path style="fill:#a7b7d3; stroke:none;" d="M663 68L664 69L663 68z"/>
<path style="fill:#7a90bc; stroke:none;" d="M752 68L753 69L752 68M49 69L50 70L49 69z"/>
<path style="fill:#a7b7d3; stroke:none;" d="M79 69L80 70L79 69M139 69L140 70L139 69z"/>
<path style="fill:#7a90bc; stroke:none;" d="M228 69L229 70L228 69M571 69L572 70L571 69M601 69L602 70L601 69z"/>
<path style="fill:#a7b7d3; stroke:none;" d="M661 69L662 70L661 69z"/>
<path style="fill:#7a90bc; stroke:none;" d="M750 69L751 70L750 69M51 70L52 71L51 70z"/>
<path style="fill:#a7b7d3; stroke:none;" d="M81 70L82 71L81 70M141 70L142 71L141 70z"/>
<path style="fill:#7a90bc; stroke:none;" d="M230 70L231 71L230 70M569 70L570 71L569 70M599 70L600 71L599 70z"/>
<path style="fill:#a7b7d3; stroke:none;" d="M659 70L660 71L659 70z"/>
<path style="fill:#7a90bc; stroke:none;" d="M748 70L749 71L748 70M53 71L54 72L53 71z"/>
<path style="fill:#a7b7d3; stroke:none;" d="M83 71L84 72L83 71M143 71L144 72L143 71z"/>
<path style="fill:#7a90bc; stroke:none;" d="M232 71L233 72L232 71M567 71L568 72L567 71M597 71L598 72L597 71z"/>
<path style="fill:#a7b7d3; stroke:none;" d="M657 71L658 72L657 71z"/>
<path style="fill:#7a90bc; stroke:none;" d="M746 71L747 72L746 71M55 72L56 73L55 72M85 72L86 73L85 72z"/>
<path style="fill:#a7b7d3; stroke:none;" d="M145 72L146 73L145 72z"/>
<path style="fill:#7a90bc; stroke:none;" d="M234 72L235 73L234 72M565 72L566 73L565 72z"/>
<path style="fill:#a7b7d3; stroke:none;" d="M595 72L596 73L595 72M655 72L656 73L655 72z"/>
<path style="fill:#7a90bc; stroke:none;" d="M744 72L745 73L744 72M57 73L58 74L57 73M87 73L88 74L87 73z"/>
<path style="fill:#a7b7d3; stroke:none;" d="M147 73L148 74L147 73z"/>
<path style="fill:#7a90bc; stroke:none;" d="M236 73L237 74L236 73M563 73L564 74L563 73z"/>
<path style="fill:#a7b7d3; stroke:none;" d="M593 73L594 74L593 73M653 73L654 74L653 73z"/>
<path style="fill:#7a90bc; stroke:none;" d="M742 73L743 74L742 73M59 74L60 75L59 74M89 74L90 75L89 74z"/>
<path style="fill:#a7b7d3; stroke:none;" d="M149 74L150 75L149 74z"/>
<path style="fill:#7a90bc; stroke:none;" d="M238 74L239 75L238 74M561 74L562 75L561 74z"/>
<path style="fill:#a7b7d3; stroke:none;" d="M591 74L592 75L591 74M651 74L652 75L651 74z"/>
<path style="fill:#7a90bc; stroke:none;" d="M740 74L741 75L740 74M61 75L62 76L61 75M91 75L92 76L91 75z"/>
<path style="fill:#a7b7d3; stroke:none;" d="M151 75L152 76L151 75z"/>
<path style="fill:#7a90bc; stroke:none;" d="M240 75L241 76L240 75M559 75L560 76L559 75M589 75L590 76L589 75z"/>
<path style="fill:#a7b7d3; stroke:none;" d="M649 75L650 76L649 75z"/>
<path style="fill:#7a90bc; stroke:none;" d="M738 75L739 76L738 75M63 76L64 77L63 76M93 76L94 77L93 76z"/>
<path style="fill:#a7b7d3; stroke:none;" d="M153 76L154 77L153 76z"/>
<path style="fill:#7a90bc; stroke:none;" d="M242 76L243 77L242 76M557 76L558 77L557 76M587 76L588 77L587 76z"/>
<path style="fill:#a7b7d3; stroke:none;" d="M647 76L648 77L647 76z"/>
<path style="fill:#7a90bc; stroke:none;" d="M736 76L737 77L736 76M65 77L66 78L65 77z"/>
<path style="fill:#a7b7d3; stroke:none;" d="M95 77L96 78L95 77M155 77L156 78L155 77z"/>
<path style="fill:#7a90bc; stroke:none;" d="M244 77L245 78L244 77M555 77L556 78L555 77M585 77L586 78L585 77z"/>
<path style="fill:#a7b7d3; stroke:none;" d="M645 77L646 78L645 77z"/>
<path style="fill:#7a90bc; stroke:none;" d="M734 77L735 78L734 77M67 78L68 79L67 78z"/>
<path style="fill:#a7b7d3; stroke:none;" d="M97 78L98 79L97 78M157 78L158 79L157 78z"/>
<path style="fill:#7a90bc; stroke:none;" d="M246 78L247 79L246 78M553 78L554 79L553 78M583 78L584 79L583 78z"/>
<path style="fill:#a7b7d3; stroke:none;" d="M643 78L644 79L643 78z"/>
<path style="fill:#7a90bc; stroke:none;" d="M732 78L733 79L732 78M69 79L70 80L69 79z"/>
<path style="fill:#a7b7d3; stroke:none;" d="M99 79L100 80L99 79M159 79L160 80L159 79z"/>
<path style="fill:#7a90bc; stroke:none;" d="M248 79L249 80L248 79M551 79L552 80L551 79M581 79L582 80L581 79z"/>
<path style="fill:#a7b7d3; stroke:none;" d="M641 79L642 80L641 79z"/>
<path style="fill:#7a90bc; stroke:none;" d="M730 79L731 80L730 79M71 80L72 81L71 80M101 80L102 81L101 80z"/>
<path style="fill:#a7b7d3; stroke:none;" d="M161 80L162 81L161 80z"/>
<path style="fill:#7a90bc; stroke:none;" d="M250 80L251 81L250 80M549 80L550 81L549 80z"/>
<path style="fill:#a7b7d3; stroke:none;" d="M579 80L580 81L579 80M639 80L640 81L639 80z"/>
<path style="fill:#7a90bc; stroke:none;" d="M728 80L729 81L728 80M73 81L74 82L73 81M103 81L104 82L103 81z"/>
<path style="fill:#a7b7d3; stroke:none;" d="M163 81L164 82L163 81z"/>
<path style="fill:#7a90bc; stroke:none;" d="M252 81L253 82L252 81M547 81L548 82L547 81z"/>
<path style="fill:#a7b7d3; stroke:none;" d="M577 81L578 82L577 81M637 81L638 82L637 81z"/>
<path style="fill:#7a90bc; stroke:none;" d="M726 81L727 82L726 81M75 82L76 83L75 82M105 82L106 83L105 82z"/>
<path style="fill:#a7b7d3; stroke:none;" d="M165 82L166 83L165 82z"/>
<path style="fill:#7a90bc; stroke:none;" d="M254 82L255 83L254 82M545 82L546 83L545 82z"/>
<path style="fill:#a7b7d3; stroke:none;" d="M575 82L576 83L575 82M635 82L636 83L635 82z"/>
<path style="fill:#7a90bc; stroke:none;" d="M724 82L725 83L724 82M77 83L78 84L77 83M107 83L108 84L107 83z"/>
<path style="fill:#a7b7d3; stroke:none;" d="M167 83L168 84L167 83z"/>
<path style="fill:#7a90bc; stroke:none;" d="M256 83L257 84L256 83M543 83L544 84L543 83M573 83L574 84L573 83z"/>
<path style="fill:#a7b7d3; stroke:none;" d="M633 83L634 84L633 83z"/>
<path style="fill:#7a90bc; stroke:none;" d="M722 83L723 84L722 83M79 84L80 85L79 84M109 84L110 85L109 84z"/>
<path style="fill:#a7b7d3; stroke:none;" d="M169 84L170 85L169 84z"/>
<path style="fill:#7a90bc; stroke:none;" d="M258 84L259 85L258 84M541 84L542 85L541 84M571 84L572 85L571 84z"/>
<path style="fill:#a7b7d3; stroke:none;" d="M631 84L632 85L631 84z"/>
<path style="fill:#7a90bc; stroke:none;" d="M720 84L721 85L720 84M81 85L82 86L81 85z"/>
<path style="fill:#a7b7d3; stroke:none;" d="M111 85L112 86L111 85M171 85L172 86L171 85z"/>
<path style="fill:#7a90bc; stroke:none;" d="M260 85L261 86L260 85M539 85L540 86L539 85M569 85L570 86L569 85z"/>
<path style="fill:#a7b7d3; stroke:none;" d="M629 85L630 86L629 85z"/>
<path style="fill:#7a90bc; stroke:none;" d="M718 85L719 86L718 85M83 86L84 87L83 86z"/>
<path style="fill:#a7b7d3; stroke:none;" d="M113 86L114 87L113 86M173 86L174 87L173 86z"/>
<path style="fill:#7a90bc; stroke:none;" d="M262 86L263 87L262 86M537 86L538 87L537 86M567 86L568 87L567 86z"/>
<path style="fill:#a7b7d3; stroke:none;" d="M627 86L628 87L627 86z"/>
<path style="fill:#7a90bc; stroke:none;" d="M716 86L717 87L716 86M85 87L86 88L85 87z"/>
<path style="fill:#a7b7d3; stroke:none;" d="M115 87L116 88L115 87M175 87L176 88L175 87z"/>
<path style="fill:#7a90bc; stroke:none;" d="M264 87L265 88L264 87M535 87L536 88L535 87M565 87L566 88L565 87z"/>
<path style="fill:#a7b7d3; stroke:none;" d="M625 87L626 88L625 87z"/>
<path style="fill:#7a90bc; stroke:none;" d="M714 87L715 88L714 87M87 88L88 89L87 88M117 88L118 89L117 88z"/>
<path style="fill:#a7b7d3; stroke:none;" d="M177 88L178 89L177 88z"/>
<path style="fill:#7a90bc; stroke:none;" d="M266 88L267 89L266 88M533 88L534 89L533 88z"/>
<path style="fill:#a7b7d3; stroke:none;" d="M563 88L564 89L563 88M623 88L624 89L623 88z"/>
<path style="fill:#7a90bc; stroke:none;" d="M712 88L713 89L712 88M89 89L90 90L89 89M119 89L120 90L119 89z"/>
<path style="fill:#a7b7d3; stroke:none;" d="M179 89L180 90L179 89z"/>
<path style="fill:#7a90bc; stroke:none;" d="M268 89L269 90L268 89M531 89L532 90L531 89z"/>
<path style="fill:#a7b7d3; stroke:none;" d="M561 89L562 90L561 89M621 89L622 90L621 89z"/>
<path style="fill:#7a90bc; stroke:none;" d="M710 89L711 90L710 89M91 90L92 91L91 90M121 90L122 91L121 90z"/>
<path style="fill:#a7b7d3; stroke:none;" d="M181 90L182 91L181 90z"/>
<path style="fill:#7a90bc; stroke:none;" d="M270 90L271 91L270 90M529 90L530 91L529 90z"/>
<path style="fill:#a7b7d3; stroke:none;" d="M559 90L560 91L559 90M619 90L620 91L619 90z"/>
<path style="fill:#7a90bc; stroke:none;" d="M708 90L709 91L708 90M93 91L94 92L93 91M123 91L124 92L123 91z"/>
<path style="fill:#a7b7d3; stroke:none;" d="M183 91L184 92L183 91z"/>
<path style="fill:#7a90bc; stroke:none;" d="M272 91L273 92L272 91M527 91L528 92L527 91M557 91L558 92L557 91z"/>
<path style="fill:#a7b7d3; stroke:none;" d="M617 91L618 92L617 91z"/>
<path style="fill:#7a90bc; stroke:none;" d="M706 91L707 92L706 91M95 92L96 93L95 92M125 92L126 93L125 92z"/>
<path style="fill:#a7b7d3; stroke:none;" d="M185 92L186 93L185 92z"/>
<path style="fill:#7a90bc; stroke:none;" d="M274 92L275 93L274 92M525 92L526 93L525 92M555 92L556 93L555 92z"/>
<path style="fill:#a7b7d3; stroke:none;" d="M615 92L616 93L615 92z"/>
<path style="fill:#7a90bc; stroke:none;" d="M704 92L705 93L704 92M97 93L98 94L97 93z"/>
<path style="fill:#a7b7d3; stroke:none;" d="M127 93L128 94L127 93M187 93L188 94L187 93z"/>
<path style="fill:#7a90bc; stroke:none;" d="M276 93L277 94L276 93M523 93L524 94L523 93M553 93L554 94L553 93z"/>
<path style="fill:#a7b7d3; stroke:none;" d="M613 93L614 94L613 93z"/>
<path style="fill:#7a90bc; stroke:none;" d="M702 93L703 94L702 93M99 94L100 95L99 94z"/>
<path style="fill:#a7b7d3; stroke:none;" d="M129 94L130 95L129 94M189 94L190 95L189 94z"/>
<path style="fill:#7a90bc; stroke:none;" d="M278 94L279 95L278 94M521 94L522 95L521 94M551 94L552 95L551 94z"/>
<path style="fill:#a7b7d3; stroke:none;" d="M611 94L612 95L611 94z"/>
<path style="fill:#7a90bc; stroke:none;" d="M700 94L701 95L700 94M101 95L102 96L101 95z"/>
<path style="fill:#a7b7d3; stroke:none;" d="M131 95L132 96L131 95M191 95L192 96L191 95z"/>
<path style="fill:#7a90bc; stroke:none;" d="M280 95L281 96L280 95M519 95L520 96L519 95M549 95L550 96L549 95z"/>
<path style="fill:#a7b7d3; stroke:none;" d="M609 95L610 96L609 95z"/>
<path style="fill:#7a90bc; stroke:none;" d="M698 95L699 96L698 95M103 96L104 97L103 96M133 96L134 97L133 96z"/>
<path style="fill:#a7b7d3; stroke:none;" d="M193 96L194 97L193 96z"/>
<path style="fill:#7a90bc; stroke:none;" d="M282 96L283 97L282 96M517 96L518 97L517 96z"/>
<path style="fill:#a7b7d3; stroke:none;" d="M547 96L548 97L547 96M607 96L608 97L607 96z"/>
<path style="fill:#7a90bc; stroke:none;" d="M696 96L697 97L696 96M105 97L106 98L105 97M135 97L136 98L135 97z"/>
<path style="fill:#a7b7d3; stroke:none;" d="M195 97L196 98L195 97z"/>
<path style="fill:#7a90bc; stroke:none;" d="M284 97L285 98L284 97M515 97L516 98L515 97z"/>
<path style="fill:#a7b7d3; stroke:none;" d="M545 97L546 98L545 97M605 97L606 98L605 97z"/>
<path style="fill:#7a90bc; stroke:none;" d="M694 97L695 98L694 97M107 98L108 99L107 98M137 98L138 99L137 98z"/>
<path style="fill:#a7b7d3; stroke:none;" d="M197 98L198 99L197 98z"/>
<path style="fill:#7a90bc; stroke:none;" d="M286 98L287 99L286 98M513 98L514 99L513 98z"/>
<path style="fill:#a7b7d3; stroke:none;" d="M543 98L544 99L543 98M603 98L604 99L603 98z"/>
<path style="fill:#7a90bc; stroke:none;" d="M692 98L693 99L692 98M109 99L110 100L109 99M139 99L140 100L139 99z"/>
<path style="fill:#a7b7d3; stroke:none;" d="M199 99L200 100L199 99z"/>
<path style="fill:#7a90bc; stroke:none;" d="M288 99L289 100L288 99M511 99L512 100L511 99M541 99L542 100L541 99z"/>
<path style="fill:#a7b7d3; stroke:none;" d="M601 99L602 100L601 99z"/>
<path style="fill:#7a90bc; stroke:none;" d="M690 99L691 100L690 99M111 100L112 101L111 100M141 100L142 101L141 100z"/>
<path style="fill:#a7b7d3; stroke:none;" d="M201 100L202 101L201 100z"/>
<path style="fill:#7a90bc; stroke:none;" d="M290 100L291 101L290 100M509 100L510 101L509 100M539 100L540 101L539 100z"/>
<path style="fill:#a7b7d3; stroke:none;" d="M599 100L600 101L599 100z"/>
<path style="fill:#7a90bc; stroke:none;" d="M688 100L689 101L688 100M113 101L114 102L113 101z"/>
<path style="fill:#a7b7d3; stroke:none;" d="M143 101L144 102L143 101M203 101L204 102L203 101z"/>
<path style="fill:#7a90bc; stroke:none;" d="M292 101L293 102L292 101M507 101L508 102L507 101M537 101L538 102L537 101z"/>
<path style="fill:#a7b7d3; stroke:none;" d="M597 101L598 102L597 101z"/>
<path style="fill:#7a90bc; stroke:none;" d="M686 101L687 102L686 101M115 102L116 103L115 102z"/>
<path style="fill:#a7b7d3; stroke:none;" d="M145 102L146 103L145 102M205 102L206 103L205 102z"/>
<path style="fill:#7a90bc; stroke:none;" d="M294 102L295 103L294 102M505 102L506 103L505 102M535 102L536 103L535 102z"/>
<path style="fill:#a7b7d3; stroke:none;" d="M595 102L596 103L595 102z"/>
<path style="fill:#7a90bc; stroke:none;" d="M684 102L685 103L684 102M117 103L118 104L117 103z"/>
<path style="fill:#a7b7d3; stroke:none;" d="M147 103L148 104L147 103M207 103L208 104L207 103z"/>
<path style="fill:#7a90bc; stroke:none;" d="M296 103L297 104L296 103M503 103L504 104L503 103M533 103L534 104L533 103z"/>
<path style="fill:#a7b7d3; stroke:none;" d="M593 103L594 104L593 103z"/>
<path style="fill:#7a90bc; stroke:none;" d="M682 103L683 104L682 103M119 104L120 105L119 104M149 104L150 105L149 104z"/>
<path style="fill:#a7b7d3; stroke:none;" d="M209 104L210 105L209 104z"/>
<path style="fill:#7a90bc; stroke:none;" d="M298 104L299 105L298 104M501 104L502 105L501 104z"/>
<path style="fill:#a7b7d3; stroke:none;" d="M531 104L532 105L531 104M591 104L592 105L591 104z"/>
<path style="fill:#7a90bc; stroke:none;" d="M680 104L681 105L680 104M121 105L122 106L121 105M151 105L152 106L151 105z"/>
<path style="fill:#a7b7d3; stroke:none;" d="M211 105L212 106L211 105z"/>
<path style="fill:#7a90bc; stroke:none;" d="M300 105L301 106L300 105M499 105L500 106L499 105z"/>
<path style="fill:#a7b7d3; stroke:none;" d="M529 105L530 106L529 105M589 105L590 106L589 105z"/>
<path style="fill:#7a90bc; stroke:none;" d="M678 105L679 106L678 105M123 106L124 107L123 106M153 106L154 107L153 106z"/>
<path style="fill:#a7b7d3; stroke:none;" d="M213 106L214 107L213 106z"/>
<path style="fill:#7a90bc; stroke:none;" d="M302 106L303 107L302 106M497 106L498 107L497 106z"/>
<path style="fill:#a7b7d3; stroke:none;" d="M527 106L528 107L527 106M587 106L588 107L587 106z"/>
<path style="fill:#7a90bc; stroke:none;" d="M676 106L677 107L676 106M125 107L126 108L125 107M155 107L156 108L155 107z"/>
<path style="fill:#a7b7d3; stroke:none;" d="M215 107L216 108L215 107z"/>
<path style="fill:#7a90bc; stroke:none;" d="M304 107L305 108L304 107M495 107L496 108L495 107M525 107L526 108L525 107z"/>
<path style="fill:#a7b7d3; stroke:none;" d="M585 107L586 108L585 107z"/>
<path style="fill:#7a90bc; stroke:none;" d="M674 107L675 108L674 107M127 108L128 109L127 108M157 108L158 109L157 108z"/>
<path style="fill:#a7b7d3; stroke:none;" d="M217 108L218 109L217 108z"/>
<path style="fill:#7a90bc; stroke:none;" d="M306 108L307 109L306 108M493 108L494 109L493 108M523 108L524 109L523 108z"/>
<path style="fill:#a7b7d3; stroke:none;" d="M583 108L584 109L583 108z"/>
<path style="fill:#7a90bc; stroke:none;" d="M672 108L673 109L672 108M129 109L130 110L129 109z"/>
<path style="fill:#a7b7d3; stroke:none;" d="M159 109L160 110L159 109M219 109L220 110L219 109z"/>
<path style="fill:#7a90bc; stroke:none;" d="M308 109L309 110L308 109M491 109L492 110L491 109M521 109L522 110L521 109z"/>
<path style="fill:#a7b7d3; stroke:none;" d="M581 109L582 110L581 109z"/>
<path style="fill:#7a90bc; stroke:none;" d="M670 109L671 110L670 109M131 110L132 111L131 110z"/>
<path style="fill:#a7b7d3; stroke:none;" d="M161 110L162 111L161 110M221 110L222 111L221 110z"/>
<path style="fill:#7a90bc; stroke:none;" d="M310 110L311 111L310 110M489 110L490 111L489 110M519 110L520 111L519 110z"/>
<path style="fill:#a7b7d3; stroke:none;" d="M579 110L580 111L579 110z"/>
<path style="fill:#7a90bc; stroke:none;" d="M668 110L669 111L668 110M133 111L134 112L133 111z"/>
<path style="fill:#a7b7d3; stroke:none;" d="M163 111L164 112L163 111M223 111L224 112L223 111z"/>
<path style="fill:#7a90bc; stroke:none;" d="M312 111L313 112L312 111M487 111L488 112L487 111M517 111L518 112L517 111z"/>
<path style="fill:#a7b7d3; stroke:none;" d="M577 111L578 112L577 111z"/>
<path style="fill:#7a90bc; stroke:none;" d="M666 111L667 112L666 111M135 112L136 113L135 112M165 112L166 113L165 112z"/>
<path style="fill:#a7b7d3; stroke:none;" d="M225 112L226 113L225 112z"/>
<path style="fill:#7a90bc; stroke:none;" d="M314 112L315 113L314 112M485 112L486 113L485 112z"/>
<path style="fill:#a7b7d3; stroke:none;" d="M515 112L516 113L515 112M575 112L576 113L575 112z"/>
<path style="fill:#7a90bc; stroke:none;" d="M664 112L665 113L664 112M137 113L138 114L137 113M167 113L168 114L167 113z"/>
<path style="fill:#a7b7d3; stroke:none;" d="M227 113L228 114L227 113z"/>
<path style="fill:#7a90bc; stroke:none;" d="M316 113L317 114L316 113M483 113L484 114L483 113z"/>
<path style="fill:#a7b7d3; stroke:none;" d="M513 113L514 114L513 113M573 113L574 114L573 113z"/>
<path style="fill:#7a90bc; stroke:none;" d="M662 113L663 114L662 113M139 114L140 115L139 114M169 114L170 115L169 114z"/>
<path style="fill:#a7b7d3; stroke:none;" d="M229 114L230 115L229 114z"/>
<path style="fill:#7a90bc; stroke:none;" d="M318 114L319 115L318 114M481 114L482 115L481 114z"/>
<path style="fill:#a7b7d3; stroke:none;" d="M511 114L512 115L511 114M571 114L572 115L571 114z"/>
<path style="fill:#7a90bc; stroke:none;" d="M660 114L661 115L660 114M141 115L142 116L141 115M171 115L172 116L171 115z"/>
<path style="fill:#a7b7d3; stroke:none;" d="M231 115L232 116L231 115z"/>
<path style="fill:#7a90bc; stroke:none;" d="M320 115L321 116L320 115M479 115L480 116L479 115M509 115L510 116L509 115z"/>
<path style="fill:#a7b7d3; stroke:none;" d="M569 115L570 116L569 115z"/>
<path style="fill:#7a90bc; stroke:none;" d="M658 115L659 116L658 115M143 116L144 117L143 116M173 116L174 117L173 116z"/>
<path style="fill:#a7b7d3; stroke:none;" d="M233 116L234 117L233 116z"/>
<path style="fill:#7a90bc; stroke:none;" d="M322 116L323 117L322 116M477 116L478 117L477 116M507 116L508 117L507 116z"/>
<path style="fill:#a7b7d3; stroke:none;" d="M567 116L568 117L567 116z"/>
<path style="fill:#7a90bc; stroke:none;" d="M656 116L657 117L656 116M145 117L146 118L145 117z"/>
<path style="fill:#a7b7d3; stroke:none;" d="M175 117L176 118L175 117M235 117L236 118L235 117z"/>
<path style="fill:#7a90bc; stroke:none;" d="M324 117L325 118L324 117M475 117L476 118L475 117M505 117L506 118L505 117z"/>
<path style="fill:#a7b7d3; stroke:none;" d="M565 117L566 118L565 117z"/>
<path style="fill:#7a90bc; stroke:none;" d="M654 117L655 118L654 117M147 118L148 119L147 118z"/>
<path style="fill:#a7b7d3; stroke:none;" d="M177 118L178 119L177 118M237 118L238 119L237 118z"/>
<path style="fill:#7a90bc; stroke:none;" d="M326 118L327 119L326 118M473 118L474 119L473 118M503 118L504 119L503 118z"/>
<path style="fill:#a7b7d3; stroke:none;" d="M563 118L564 119L563 118z"/>
<path style="fill:#7a90bc; stroke:none;" d="M652 118L653 119L652 118M149 119L150 120L149 119z"/>
<path style="fill:#a7b7d3; stroke:none;" d="M179 119L180 120L179 119M239 119L240 120L239 119z"/>
<path style="fill:#7a90bc; stroke:none;" d="M328 119L329 120L328 119M471 119L472 120L471 119M501 119L502 120L501 119z"/>
<path style="fill:#a7b7d3; stroke:none;" d="M561 119L562 120L561 119z"/>
<path style="fill:#7a90bc; stroke:none;" d="M650 119L651 120L650 119M151 120L152 121L151 120M181 120L182 121L181 120z"/>
<path style="fill:#a7b7d3; stroke:none;" d="M241 120L242 121L241 120z"/>
<path style="fill:#7a90bc; stroke:none;" d="M330 120L331 121L330 120M469 120L470 121L469 120z"/>
<path style="fill:#a7b7d3; stroke:none;" d="M499 120L500 121L499 120M559 120L560 121L559 120z"/>
<path style="fill:#7a90bc; stroke:none;" d="M648 120L649 121L648 120M153 121L154 122L153 121M183 121L184 122L183 121z"/>
<path style="fill:#a7b7d3; stroke:none;" d="M243 121L244 122L243 121z"/>
<path style="fill:#7a90bc; stroke:none;" d="M332 121L333 122L332 121M467 121L468 122L467 121z"/>
<path style="fill:#a7b7d3; stroke:none;" d="M497 121L498 122L497 121M557 121L558 122L557 121z"/>
<path style="fill:#7a90bc; stroke:none;" d="M646 121L647 122L646 121M155 122L156 123L155 122M185 122L186 123L185 122z"/>
<path style="fill:#a7b7d3; stroke:none;" d="M245 122L246 123L245 122M495 122L496 123L495 122M555 122L556 123L555 122z"/>
<path style="fill:#7a90bc; stroke:none;" d="M644 122L645 123L644 122M157 123L158 124L157 123M187 123L188 124L187 123z"/>
<path style="fill:#a7b7d3; stroke:none;" d="M247 123L248 124L247 123z"/>
<path style="fill:#7a90bc; stroke:none;" d="M493 123L494 124L493 123z"/>
<path style="fill:#a7b7d3; stroke:none;" d="M553 123L554 124L553 123z"/>
<path style="fill:#7a90bc; stroke:none;" d="M642 123L643 124L642 123M159 124L160 125L159 124M189 124L190 125L189 124z"/>
<path style="fill:#a7b7d3; stroke:none;" d="M249 124L250 125L249 124z"/>
<path style="fill:#7a90bc; stroke:none;" d="M491 124L492 125L491 124z"/>
<path style="fill:#a7b7d3; stroke:none;" d="M551 124L552 125L551 124z"/>
<path style="fill:#7a90bc; stroke:none;" d="M640 124L641 125L640 124M161 125L162 126L161 125z"/>
<path style="fill:#a7b7d3; stroke:none;" d="M191 125L192 126L191 125M251 125L252 126L251 125z"/>
<path style="fill:#7a90bc; stroke:none;" d="M489 125L490 126L489 125z"/>
<path style="fill:#a7b7d3; stroke:none;" d="M549 125L550 126L549 125z"/>
<path style="fill:#7a90bc; stroke:none;" d="M638 125L639 126L638 125M163 126L164 127L163 126z"/>
<path style="fill:#a7b7d3; stroke:none;" d="M193 126L194 127L193 126M253 126L254 127L253 126z"/>
<path style="fill:#7a90bc; stroke:none;" d="M487 126L488 127L487 126z"/>
<path style="fill:#a7b7d3; stroke:none;" d="M547 126L548 127L547 126z"/>
<path style="fill:#7a90bc; stroke:none;" d="M636 126L637 127L636 126M165 127L166 128L165 127z"/>
<path style="fill:#a7b7d3; stroke:none;" d="M195 127L196 128L195 127M255 127L256 128L255 127z"/>
<path style="fill:#7a90bc; stroke:none;" d="M485 127L486 128L485 127z"/>
<path style="fill:#a7b7d3; stroke:none;" d="M545 127L546 128L545 127z"/>
<path style="fill:#7a90bc; stroke:none;" d="M634 127L635 128L634 127M167 128L168 129L167 128M197 128L198 129L197 128z"/>
<path style="fill:#a7b7d3; stroke:none;" d="M257 128L258 129L257 128M483 128L484 129L483 128M543 128L544 129L543 128z"/>
<path style="fill:#7a90bc; stroke:none;" d="M632 128L633 129L632 128M169 129L170 130L169 129M199 129L200 130L199 129z"/>
<path style="fill:#a7b7d3; stroke:none;" d="M259 129L260 130L259 129M481 129L482 130L481 129M541 129L542 130L541 129z"/>
<path style="fill:#7a90bc; stroke:none;" d="M630 129L631 130L630 129M171 130L172 131L171 130M201 130L202 131L201 130z"/>
<path style="fill:#a7b7d3; stroke:none;" d="M261 130L262 131L261 130M479 130L480 131L479 130M539 130L540 131L539 130z"/>
<path style="fill:#7a90bc; stroke:none;" d="M628 130L629 131L628 130M173 131L174 132L173 131M203 131L204 132L203 131z"/>
<path style="fill:#a7b7d3; stroke:none;" d="M263 131L264 132L263 131z"/>
<path style="fill:#7a90bc; stroke:none;" d="M477 131L478 132L477 131z"/>
<path style="fill:#a7b7d3; stroke:none;" d="M537 131L538 132L537 131z"/>
<path style="fill:#7a90bc; stroke:none;" d="M626 131L627 132L626 131M175 132L176 133L175 132M205 132L206 133L205 132z"/>
<path style="fill:#a7b7d3; stroke:none;" d="M265 132C248.068 137.005 224.683 133 207 133L207 134L252 134L265 132z"/>
<path style="fill:#7a90bc; stroke:none;" d="M475 132L476 133L475 132z"/>
<path style="fill:#a7b7d3; stroke:none;" d="M535 132L536 133L535 132z"/>
<path style="fill:#7a90bc; stroke:none;" d="M624 132L625 133L624 132z"/>
<path style="fill:#a7b7d3; stroke:none;" d="M0 133L0 134L177 134L160 133L124 133L0 133M475 133L475 134L534 134L515 133L475 133M623 133L623 134L800 134L783 133L747 133L623 133z"/>
<path style="fill:#fefdfe; stroke:none;" d="M0 240L0 266L177 266L177 267L49 330.753L15 347.753L1.02778 355.637L0 368L0 399C22.9037 392.402 45.6657 376.914 67 366.247L204 297.753L246 276.753C252.874 273.316 260.452 268.022 268 266.39C285.443 262.62 307.138 266 325 266C318.473 272.597 307.268 276.113 299 280.247L243 308.247C182.818 338.338 123.099 373.146 61 399L61 400C69.8931 400 80.2962 401.491 89 399.61C97.2063 397.836 105.521 391.986 113 388.247L161 364.247C218.205 335.645 274.973 302.575 334 278L334 400L360 400L360 240L0 240M440 240L440 400L466 400L466 278C525.709 302.859 583.134 336.314 641 365.247C662.813 376.153 686.564 392.711 710 399.363C718.687 401.828 730.005 400 739 400L798 400L798 399C735.902 373.146 676.182 338.338 616 308.247L560 280.247C551.732 276.113 540.527 272.597 534 266C551.862 266 573.557 262.62 591 266.39C610.998 270.714 632.681 286.593 651 295.753C700.27 320.388 749.161 348.833 800 370L798.972 355.637L787 348.753L759 334.753L623 267L623 266L800 266L800 240L440 240z"/>
<path style="fill:#a7b7d3; stroke:none;" d="M0 266L0 267L177 267L160 266L124 266L0 266M266 266L266 267L325 267L306 266L266 266M534 268C552.119 263.686 574.384 267 593 267C581.306 262.093 560.73 266 548 266C543.759 266 536.97 264.601 534 268M623 266L623 267L800 267L783 266L747 266L623 266z"/>
<path style="fill:#012b7f; stroke:none;" d="M0 267L0 355L175 268L158 267L123 267L0 267z"/>
<path style="fill:#7a90bc; stroke:none;" d="M175 267L176 268L175 267z"/>
<path style="fill:#a7b7d3; stroke:none;" d="M264 267L265 268L264 267z"/>
<path style="fill:#cf1228; stroke:none;" d="M2 399L2 400C19.8617 400 41.5572 403.38 59 399.61C67.8638 397.693 76.9172 391.288 85 387.247L135 362.247C197.495 331 259.515 294.847 324 268L299 267L266 267.39L222 288.753L76 361.753L2 399z"/>
<path style="fill:#7a90bc; stroke:none;" d="M324 267L325 268L324 267z"/>
<path style="fill:#cf1228; stroke:none;" d="M535 267L535 268C625.912 305.85 709.088 362.15 800 400C800 392.92 803.07 376.507 798.972 370.637C795.566 365.759 785.228 362.861 780 360.247L733 336.753L639 289.753C624.893 282.7 608.418 270.723 593 267.39C575.256 263.555 553.171 267 535 267z"/>
<path style="fill:#7a90bc; stroke:none;" d="M594 267L595 268L594 267M624 267L625 268L624 267z"/>
<path style="fill:#012b7f; stroke:none;" d="M625 267L625 268L800 355L800 267L625 267z"/>
<path style="fill:#7a90bc; stroke:none;" d="M173 268L174 269L173 268z"/>
<path style="fill:#a7b7d3; stroke:none;" d="M262 268L263 269L262 268z"/>
<path style="fill:#7a90bc; stroke:none;" d="M322 268L323 269L322 268z"/>
<path style="fill:#a7b7d3; stroke:none;" d="M536 268L537 269L536 268z"/>
<path style="fill:#7a90bc; stroke:none;" d="M596 268L597 269L596 268M626 268L627 269L626 268M171 269L172 270L171 269z"/>
<path style="fill:#a7b7d3; stroke:none;" d="M260 269L261 270L260 269M320 269L321 270L320 269M538 269L539 270L538 269z"/>
<path style="fill:#7a90bc; stroke:none;" d="M598 269L599 270L598 269M628 269L629 270L628 269M169 270L170 271L169 270z"/>
<path style="fill:#a7b7d3; stroke:none;" d="M258 270L259 271L258 270M318 270L319 271L318 270M540 270L541 271L540 270z"/>
<path style="fill:#7a90bc; stroke:none;" d="M600 270L601 271L600 270M630 270L631 271L630 270M167 271L168 272L167 271z"/>
<path style="fill:#a7b7d3; stroke:none;" d="M256 271L257 272L256 271z"/>
<path style="fill:#7a90bc; stroke:none;" d="M316 271L317 272L316 271z"/>
<path style="fill:#a7b7d3; stroke:none;" d="M542 271L543 272L542 271z"/>
<path style="fill:#7a90bc; stroke:none;" d="M602 271L603 272L602 271M632 271L633 272L632 271M165 272L166 273L165 272z"/>
<path style="fill:#a7b7d3; stroke:none;" d="M254 272L255 273L254 272z"/>
<path style="fill:#7a90bc; stroke:none;" d="M314 272L315 273L314 272z"/>
<path style="fill:#a7b7d3; stroke:none;" d="M544 272L545 273L544 272M604 272L605 273L604 272z"/>
<path style="fill:#7a90bc; stroke:none;" d="M634 272L635 273L634 272M163 273L164 274L163 273z"/>
<path style="fill:#a7b7d3; stroke:none;" d="M252 273L253 274L252 273z"/>
<path style="fill:#7a90bc; stroke:none;" d="M312 273L313 274L312 273z"/>
<path style="fill:#a7b7d3; stroke:none;" d="M546 273L547 274L546 273M606 273L607 274L606 273z"/>
<path style="fill:#7a90bc; stroke:none;" d="M636 273L637 274L636 273M161 274L162 275L161 274z"/>
<path style="fill:#a7b7d3; stroke:none;" d="M250 274L251 275L250 274z"/>
<path style="fill:#7a90bc; stroke:none;" d="M310 274L311 275L310 274z"/>
<path style="fill:#a7b7d3; stroke:none;" d="M548 274L549 275L548 274M608 274L609 275L608 274z"/>
<path style="fill:#7a90bc; stroke:none;" d="M638 274L639 275L638 274M159 275L160 276L159 275z"/>
<path style="fill:#a7b7d3; stroke:none;" d="M248 275L249 276L248 275z"/>
<path style="fill:#7a90bc; stroke:none;" d="M308 275L309 276L308 275z"/>
<path style="fill:#a7b7d3; stroke:none;" d="M550 275L551 276L550 275z"/>
<path style="fill:#7a90bc; stroke:none;" d="M610 275L611 276L610 275M640 275L641 276L640 275M157 276L158 277L157 276z"/>
<path style="fill:#a7b7d3; stroke:none;" d="M246 276L247 277L246 276z"/>
<path style="fill:#7a90bc; stroke:none;" d="M306 276L307 277L306 276z"/>
<path style="fill:#a7b7d3; stroke:none;" d="M552 276L553 277L552 276z"/>
<path style="fill:#7a90bc; stroke:none;" d="M612 276L613 277L612 276M642 276L643 277L642 276M155 277L156 278L155 277z"/>
<path style="fill:#a7b7d3; stroke:none;" d="M244 277L245 278L244 277M304 277L305 278L304 277M554 277L555 278L554 277z"/>
<path style="fill:#7a90bc; stroke:none;" d="M614 277L615 278L614 277M644 277L645 278L644 277M153 278L154 279L153 278z"/>
<path style="fill:#a7b7d3; stroke:none;" d="M242 278L243 279L242 278M302 278L303 279L302 278z"/>
<path style="fill:#7a90bc; stroke:none;" d="M332 278L333 279L332 278z"/>
<path style="fill:#a7b7d3; stroke:none;" d="M333 278L333 400L334 400L334 315C334 304.366 337.108 287.789 333 278M466 278L466 400L467 400L467 315C467 304.366 470.108 287.789 466 278z"/>
<path style="fill:#7a90bc; stroke:none;" d="M467 278L468 279L467 278z"/>
<path style="fill:#a7b7d3; stroke:none;" d="M556 278L557 279L556 278z"/>
<path style="fill:#7a90bc; stroke:none;" d="M616 278L617 279L616 278M646 278L647 279L646 278M151 279L152 280L151 279z"/>
<path style="fill:#a7b7d3; stroke:none;" d="M240 279L241 280L240 279M300 279L301 280L300 279z"/>
<path style="fill:#7a90bc; stroke:none;" d="M330 279L331 280L330 279z"/>
<path style="fill:#012b7f; stroke:none;" d="M91 399L91 400L333 400L333 279C309.421 285.793 285.965 301.771 264 312.753C206.795 341.355 150.027 374.425 91 399M467 279L467 400L709 400L678 383.753L618 353.753L518 303.753L467 279z"/>
<path style="fill:#7a90bc; stroke:none;" d="M469 279L470 280L469 279z"/>
<path style="fill:#a7b7d3; stroke:none;" d="M558 279L559 280L558 279z"/>
<path style="fill:#7a90bc; stroke:none;" d="M618 279L619 280L618 279M648 279L649 280L648 279M149 280L150 281L149 280z"/>
<path style="fill:#a7b7d3; stroke:none;" d="M238 280L239 281L238 280z"/>
<path style="fill:#7a90bc; stroke:none;" d="M298 280L299 281L298 280M328 280L329 281L328 280M471 280L472 281L471 280z"/>
<path style="fill:#a7b7d3; stroke:none;" d="M560 280L561 281L560 280M620 280L621 281L620 280z"/>
<path style="fill:#7a90bc; stroke:none;" d="M650 280L651 281L650 280M147 281L148 282L147 281z"/>
<path style="fill:#a7b7d3; stroke:none;" d="M236 281L237 282L236 281z"/>
<path style="fill:#7a90bc; stroke:none;" d="M296 281L297 282L296 281M326 281L327 282L326 281M473 281L474 282L473 281z"/>
<path style="fill:#a7b7d3; stroke:none;" d="M562 281L563 282L562 281M622 281L623 282L622 281z"/>
<path style="fill:#7a90bc; stroke:none;" d="M652 281L653 282L652 281M145 282L146 283L145 282z"/>
<path style="fill:#a7b7d3; stroke:none;" d="M234 282L235 283L234 282z"/>
<path style="fill:#7a90bc; stroke:none;" d="M294 282L295 283L294 282M324 282L325 283L324 282M475 282L476 283L475 282z"/>
<path style="fill:#a7b7d3; stroke:none;" d="M564 282L565 283L564 282M624 282L625 283L624 282z"/>
<path style="fill:#7a90bc; stroke:none;" d="M654 282L655 283L654 282M143 283L144 284L143 283z"/>
<path style="fill:#a7b7d3; stroke:none;" d="M232 283L233 284L232 283z"/>
<path style="fill:#7a90bc; stroke:none;" d="M292 283L293 284L292 283M322 283L323 284L322 283M477 283L478 284L477 283z"/>
<path style="fill:#a7b7d3; stroke:none;" d="M566 283L567 284L566 283z"/>
<path style="fill:#7a90bc; stroke:none;" d="M626 283L627 284L626 283M656 283L657 284L656 283M141 284L142 285L141 284z"/>
<path style="fill:#a7b7d3; stroke:none;" d="M230 284L231 285L230 284z"/>
<path style="fill:#7a90bc; stroke:none;" d="M290 284L291 285L290 284M320 284L321 285L320 284M479 284L480 285L479 284z"/>
<path style="fill:#a7b7d3; stroke:none;" d="M568 284L569 285L568 284z"/>
<path style="fill:#7a90bc; stroke:none;" d="M628 284L629 285L628 284M658 284L659 285L658 284M139 285L140 286L139 285z"/>
<path style="fill:#a7b7d3; stroke:none;" d="M228 285L229 286L228 285M288 285L289 286L288 285z"/>
<path style="fill:#7a90bc; stroke:none;" d="M318 285L319 286L318 285M481 285L482 286L481 285z"/>
<path style="fill:#a7b7d3; stroke:none;" d="M570 285L571 286L570 285z"/>
<path style="fill:#7a90bc; stroke:none;" d="M630 285L631 286L630 285M660 285L661 286L660 285M137 286L138 287L137 286z"/>
<path style="fill:#a7b7d3; stroke:none;" d="M226 286L227 287L226 286M286 286L287 287L286 286z"/>
<path style="fill:#7a90bc; stroke:none;" d="M316 286L317 287L316 286M483 286L484 287L483 286z"/>
<path style="fill:#a7b7d3; stroke:none;" d="M572 286L573 287L572 286z"/>
<path style="fill:#7a90bc; stroke:none;" d="M632 286L633 287L632 286M662 286L663 287L662 286M135 287L136 288L135 287z"/>
<path style="fill:#a7b7d3; stroke:none;" d="M224 287L225 288L224 287M284 287L285 288L284 287z"/>
<path style="fill:#7a90bc; stroke:none;" d="M314 287L315 288L314 287M485 287L486 288L485 287z"/>
<path style="fill:#a7b7d3; stroke:none;" d="M574 287L575 288L574 287z"/>
<path style="fill:#7a90bc; stroke:none;" d="M634 287L635 288L634 287M664 287L665 288L664 287M133 288L134 289L133 288z"/>
<path style="fill:#a7b7d3; stroke:none;" d="M222 288L223 289L222 288z"/>
<path style="fill:#7a90bc; stroke:none;" d="M282 288L283 289L282 288M312 288L313 289L312 288M487 288L488 289L487 288z"/>
<path style="fill:#a7b7d3; stroke:none;" d="M576 288L577 289L576 288z"/>
<path style="fill:#7a90bc; stroke:none;" d="M636 288L637 289L636 288M666 288L667 289L666 288M131 289L132 290L131 289z"/>
<path style="fill:#a7b7d3; stroke:none;" d="M220 289L221 290L220 289z"/>
<path style="fill:#7a90bc; stroke:none;" d="M280 289L281 290L280 289M310 289L311 290L310 289M489 289L490 290L489 289z"/>
<path style="fill:#a7b7d3; stroke:none;" d="M578 289L579 290L578 289M638 289L639 290L638 289z"/>
<path style="fill:#7a90bc; stroke:none;" d="M668 289L669 290L668 289M129 290L130 291L129 290z"/>
<path style="fill:#a7b7d3; stroke:none;" d="M218 290L219 291L218 290z"/>
<path style="fill:#7a90bc; stroke:none;" d="M278 290L279 291L278 290M308 290L309 291L308 290M491 290L492 291L491 290z"/>
<path style="fill:#a7b7d3; stroke:none;" d="M580 290L581 291L580 290M640 290L641 291L640 290z"/>
<path style="fill:#7a90bc; stroke:none;" d="M670 290L671 291L670 290M127 291L128 292L127 291z"/>
<path style="fill:#a7b7d3; stroke:none;" d="M216 291L217 292L216 291z"/>
<path style="fill:#7a90bc; stroke:none;" d="M276 291L277 292L276 291M306 291L307 292L306 291M493 291L494 292L493 291z"/>
<path style="fill:#a7b7d3; stroke:none;" d="M582 291L583 292L582 291z"/>
<path style="fill:#7a90bc; stroke:none;" d="M642 291L643 292L642 291M672 291L673 292L672 291M125 292L126 293L125 292z"/>
<path style="fill:#a7b7d3; stroke:none;" d="M214 292L215 293L214 292z"/>
<path style="fill:#7a90bc; stroke:none;" d="M274 292L275 293L274 292M304 292L305 293L304 292M495 292L496 293L495 292z"/>
<path style="fill:#a7b7d3; stroke:none;" d="M584 292L585 293L584 292z"/>
<path style="fill:#7a90bc; stroke:none;" d="M644 292L645 293L644 292M674 292L675 293L674 292M123 293L124 294L123 293z"/>
<path style="fill:#a7b7d3; stroke:none;" d="M212 293L213 294L212 293M272 293L273 294L272 293z"/>
<path style="fill:#7a90bc; stroke:none;" d="M302 293L303 294L302 293M497 293L498 294L497 293z"/>
<path style="fill:#a7b7d3; stroke:none;" d="M586 293L587 294L586 293z"/>
<path style="fill:#7a90bc; stroke:none;" d="M646 293L647 294L646 293M676 293L677 294L676 293M121 294L122 295L121 294z"/>
<path style="fill:#a7b7d3; stroke:none;" d="M210 294L211 295L210 294M270 294L271 295L270 294z"/>
<path style="fill:#7a90bc; stroke:none;" d="M300 294L301 295L300 294M499 294L500 295L499 294z"/>
<path style="fill:#a7b7d3; stroke:none;" d="M588 294L589 295L588 294z"/>
<path style="fill:#7a90bc; stroke:none;" d="M648 294L649 295L648 294M678 294L679 295L678 294M119 295L120 296L119 295z"/>
<path style="fill:#a7b7d3; stroke:none;" d="M208 295L209 296L208 295M268 295L269 296L268 295z"/>
<path style="fill:#7a90bc; stroke:none;" d="M298 295L299 296L298 295M501 295L502 296L501 295z"/>
<path style="fill:#a7b7d3; stroke:none;" d="M590 295L591 296L590 295z"/>
<path style="fill:#7a90bc; stroke:none;" d="M650 295L651 296L650 295M680 295L681 296L680 295M117 296L118 297L117 296z"/>
<path style="fill:#a7b7d3; stroke:none;" d="M206 296L207 297L206 296z"/>
<path style="fill:#7a90bc; stroke:none;" d="M266 296L267 297L266 296M296 296L297 297L296 296M503 296L504 297L503 296z"/>
<path style="fill:#a7b7d3; stroke:none;" d="M592 296L593 297L592 296z"/>
<path style="fill:#7a90bc; stroke:none;" d="M652 296L653 297L652 296M682 296L683 297L682 296M115 297L116 298L115 297z"/>
<path style="fill:#a7b7d3; stroke:none;" d="M204 297L205 298L204 297z"/>
<path style="fill:#7a90bc; stroke:none;" d="M264 297L265 298L264 297M294 297L295 298L294 297M505 297L506 298L505 297z"/>
<path style="fill:#a7b7d3; stroke:none;" d="M594 297L595 298L594 297M654 297L655 298L654 297z"/>
<path style="fill:#7a90bc; stroke:none;" d="M684 297L685 298L684 297M113 298L114 299L113 298z"/>
<path style="fill:#a7b7d3; stroke:none;" d="M202 298L203 299L202 298z"/>
<path style="fill:#7a90bc; stroke:none;" d="M262 298L263 299L262 298M292 298L293 299L292 298M507 298L508 299L507 298z"/>
<path style="fill:#a7b7d3; stroke:none;" d="M596 298L597 299L596 298M656 298L657 299L656 298z"/>
<path style="fill:#7a90bc; stroke:none;" d="M686 298L687 299L686 298M111 299L112 300L111 299z"/>
<path style="fill:#a7b7d3; stroke:none;" d="M200 299L201 300L200 299z"/>
<path style="fill:#7a90bc; stroke:none;" d="M260 299L261 300L260 299M290 299L291 300L290 299M509 299L510 300L509 299z"/>
<path style="fill:#a7b7d3; stroke:none;" d="M598 299L599 300L598 299z"/>
<path style="fill:#7a90bc; stroke:none;" d="M658 299L659 300L658 299M688 299L689 300L688 299M109 300L110 301L109 300z"/>
<path style="fill:#a7b7d3; stroke:none;" d="M198 300L199 301L198 300z"/>
<path style="fill:#7a90bc; stroke:none;" d="M258 300L259 301L258 300M288 300L289 301L288 300M511 300L512 301L511 300z"/>
<path style="fill:#a7b7d3; stroke:none;" d="M600 300L601 301L600 300z"/>
<path style="fill:#7a90bc; stroke:none;" d="M660 300L661 301L660 300M690 300L691 301L690 300M107 301L108 302L107 301z"/>
<path style="fill:#a7b7d3; stroke:none;" d="M196 301L197 302L196 301M256 301L257 302L256 301z"/>
<path style="fill:#7a90bc; stroke:none;" d="M286 301L287 302L286 301M513 301L514 302L513 301z"/>
<path style="fill:#a7b7d3; stroke:none;" d="M602 301L603 302L602 301z"/>
<path style="fill:#7a90bc; stroke:none;" d="M662 301L663 302L662 301M692 301L693 302L692 301M105 302L106 303L105 302z"/>
<path style="fill:#a7b7d3; stroke:none;" d="M194 302L195 303L194 302M254 302L255 303L254 302z"/>
<path style="fill:#7a90bc; stroke:none;" d="M284 302L285 303L284 302M515 302L516 303L515 302z"/>
<path style="fill:#a7b7d3; stroke:none;" d="M604 302L605 303L604 302z"/>
<path style="fill:#7a90bc; stroke:none;" d="M664 302L665 303L664 302M694 302L695 303L694 302M103 303L104 304L103 303z"/>
<path style="fill:#a7b7d3; stroke:none;" d="M192 303L193 304L192 303M252 303L253 304L252 303z"/>
<path style="fill:#7a90bc; stroke:none;" d="M282 303L283 304L282 303M517 303L518 304L517 303z"/>
<path style="fill:#a7b7d3; stroke:none;" d="M606 303L607 304L606 303z"/>
<path style="fill:#7a90bc; stroke:none;" d="M666 303L667 304L666 303M696 303L697 304L696 303M101 304L102 305L101 304z"/>
<path style="fill:#a7b7d3; stroke:none;" d="M190 304L191 305L190 304z"/>
<path style="fill:#7a90bc; stroke:none;" d="M250 304L251 305L250 304M280 304L281 305L280 304M519 304L520 305L519 304z"/>
<path style="fill:#a7b7d3; stroke:none;" d="M608 304L609 305L608 304z"/>
<path style="fill:#7a90bc; stroke:none;" d="M668 304L669 305L668 304M698 304L699 305L698 304M99 305L100 306L99 305z"/>
<path style="fill:#a7b7d3; stroke:none;" d="M188 305L189 306L188 305z"/>
<path style="fill:#7a90bc; stroke:none;" d="M248 305L249 306L248 305M278 305L279 306L278 305M521 305L522 306L521 305z"/>
<path style="fill:#a7b7d3; stroke:none;" d="M610 305L611 306L610 305M670 305L671 306L670 305z"/>
<path style="fill:#7a90bc; stroke:none;" d="M700 305L701 306L700 305M97 306L98 307L97 306z"/>
<path style="fill:#a7b7d3; stroke:none;" d="M186 306L187 307L186 306z"/>
<path style="fill:#7a90bc; stroke:none;" d="M246 306L247 307L246 306M276 306L277 307L276 306M523 306L524 307L523 306z"/>
<path style="fill:#a7b7d3; stroke:none;" d="M612 306L613 307L612 306M672 306L673 307L672 306z"/>
<path style="fill:#7a90bc; stroke:none;" d="M702 306L703 307L702 306M95 307L96 308L95 307z"/>
<path style="fill:#a7b7d3; stroke:none;" d="M184 307L185 308L184 307z"/>
<path style="fill:#7a90bc; stroke:none;" d="M244 307L245 308L244 307M274 307L275 308L274 307M525 307L526 308L525 307z"/>
<path style="fill:#a7b7d3; stroke:none;" d="M614 307L615 308L614 307z"/>
<path style="fill:#7a90bc; stroke:none;" d="M674 307L675 308L674 307M704 307L705 308L704 307M93 308L94 309L93 308z"/>
<path style="fill:#a7b7d3; stroke:none;" d="M182 308L183 309L182 308z"/>
<path style="fill:#7a90bc; stroke:none;" d="M242 308L243 309L242 308M272 308L273 309L272 308M527 308L528 309L527 308z"/>
<path style="fill:#a7b7d3; stroke:none;" d="M616 308L617 309L616 308z"/>
<path style="fill:#7a90bc; stroke:none;" d="M676 308L677 309L676 308M706 308L707 309L706 308M91 309L92 310L91 309z"/>
<path style="fill:#a7b7d3; stroke:none;" d="M180 309L181 310L180 309M240 309L241 310L240 309z"/>
<path style="fill:#7a90bc; stroke:none;" d="M270 309L271 310L270 309M529 309L530 310L529 309z"/>
<path style="fill:#a7b7d3; stroke:none;" d="M618 309L619 310L618 309z"/>
<path style="fill:#7a90bc; stroke:none;" d="M678 309L679 310L678 309M708 309L709 310L708 309M89 310L90 311L89 310z"/>
<path style="fill:#a7b7d3; stroke:none;" d="M178 310L179 311L178 310M238 310L239 311L238 310z"/>
<path style="fill:#7a90bc; stroke:none;" d="M268 310L269 311L268 310M531 310L532 311L531 310z"/>
<path style="fill:#a7b7d3; stroke:none;" d="M620 310L621 311L620 310z"/>
<path style="fill:#7a90bc; stroke:none;" d="M680 310L681 311L680 310M710 310L711 311L710 310M87 311L88 312L87 311z"/>
<path style="fill:#a7b7d3; stroke:none;" d="M176 311L177 312L176 311M236 311L237 312L236 311z"/>
<path style="fill:#7a90bc; stroke:none;" d="M266 311L267 312L266 311M533 311L534 312L533 311z"/>
<path style="fill:#a7b7d3; stroke:none;" d="M622 311L623 312L622 311z"/>
<path style="fill:#7a90bc; stroke:none;" d="M682 311L683 312L682 311M712 311L713 312L712 311M85 312L86 313L85 312z"/>
<path style="fill:#a7b7d3; stroke:none;" d="M174 312L175 313L174 312z"/>
<path style="fill:#7a90bc; stroke:none;" d="M234 312L235 313L234 312M264 312L265 313L264 312M535 312L536 313L535 312z"/>
<path style="fill:#a7b7d3; stroke:none;" d="M624 312L625 313L624 312M684 312L685 313L684 312z"/>
<path style="fill:#7a90bc; stroke:none;" d="M714 312L715 313L714 312M83 313L84 314L83 313z"/>
<path style="fill:#a7b7d3; stroke:none;" d="M172 313L173 314L172 313z"/>
<path style="fill:#7a90bc; stroke:none;" d="M232 313L233 314L232 313M262 313L263 314L262 313M537 313L538 314L537 313z"/>
<path style="fill:#a7b7d3; stroke:none;" d="M626 313L627 314L626 313M686 313L687 314L686 313z"/>
<path style="fill:#7a90bc; stroke:none;" d="M716 313L717 314L716 313M81 314L82 315L81 314z"/>
<path style="fill:#a7b7d3; stroke:none;" d="M170 314L171 315L170 314z"/>
<path style="fill:#7a90bc; stroke:none;" d="M230 314L231 315L230 314M260 314L261 315L260 314M539 314L540 315L539 314z"/>
<path style="fill:#a7b7d3; stroke:none;" d="M628 314L629 315L628 314M688 314L689 315L688 314z"/>
<path style="fill:#7a90bc; stroke:none;" d="M718 314L719 315L718 314M79 315L80 316L79 315z"/>
<path style="fill:#a7b7d3; stroke:none;" d="M168 315L169 316L168 315z"/>
<path style="fill:#7a90bc; stroke:none;" d="M228 315L229 316L228 315M258 315L259 316L258 315M541 315L542 316L541 315z"/>
<path style="fill:#a7b7d3; stroke:none;" d="M630 315L631 316L630 315z"/>
<path style="fill:#7a90bc; stroke:none;" d="M690 315L691 316L690 315M720 315L721 316L720 315M77 316L78 317L77 316z"/>
<path style="fill:#a7b7d3; stroke:none;" d="M166 316L167 317L166 316z"/>
<path style="fill:#7a90bc; stroke:none;" d="M226 316L227 317L226 316M256 316L257 317L256 316M543 316L544 317L543 316z"/>
<path style="fill:#a7b7d3; stroke:none;" d="M632 316L633 317L632 316z"/>
<path style="fill:#7a90bc; stroke:none;" d="M692 316L693 317L692 316M722 316L723 317L722 316M75 317L76 318L75 317z"/>
<path style="fill:#a7b7d3; stroke:none;" d="M164 317L165 318L164 317M224 317L225 318L224 317z"/>
<path style="fill:#7a90bc; stroke:none;" d="M254 317L255 318L254 317M545 317L546 318L545 317z"/>
<path style="fill:#a7b7d3; stroke:none;" d="M634 317L635 318L634 317z"/>
<path style="fill:#7a90bc; stroke:none;" d="M694 317L695 318L694 317M724 317L725 318L724 317M73 318L74 319L73 318z"/>
<path style="fill:#a7b7d3; stroke:none;" d="M162 318L163 319L162 318M222 318L223 319L222 318z"/>
<path style="fill:#7a90bc; stroke:none;" d="M252 318L253 319L252 318M547 318L548 319L547 318z"/>
<path style="fill:#a7b7d3; stroke:none;" d="M636 318L637 319L636 318z"/>
<path style="fill:#7a90bc; stroke:none;" d="M696 318L697 319L696 318M726 318L727 319L726 318M71 319L72 320L71 319z"/>
<path style="fill:#a7b7d3; stroke:none;" d="M160 319L161 320L160 319z"/>
<path style="fill:#7a90bc; stroke:none;" d="M220 319L221 320L220 319M250 319L251 320L250 319M549 319L550 320L549 319z"/>
<path style="fill:#a7b7d3; stroke:none;" d="M638 319L639 320L638 319z"/>
<path style="fill:#7a90bc; stroke:none;" d="M698 319L699 320L698 319M728 319L729 320L728 319M69 320L70 321L69 320z"/>
<path style="fill:#a7b7d3; stroke:none;" d="M158 320L159 321L158 320z"/>
<path style="fill:#7a90bc; stroke:none;" d="M218 320L219 321L218 320M248 320L249 321L248 320M551 320L552 321L551 320z"/>
<path style="fill:#a7b7d3; stroke:none;" d="M640 320L641 321L640 320M700 320L701 321L700 320z"/>
<path style="fill:#7a90bc; stroke:none;" d="M730 320L731 321L730 320M67 321L68 322L67 321z"/>
<path style="fill:#a7b7d3; stroke:none;" d="M156 321L157 322L156 321z"/>
<path style="fill:#7a90bc; stroke:none;" d="M216 321L217 322L216 321M246 321L247 322L246 321M553 321L554 322L553 321z"/>
<path style="fill:#a7b7d3; stroke:none;" d="M642 321L643 322L642 321M702 321L703 322L702 321z"/>
<path style="fill:#7a90bc; stroke:none;" d="M732 321L733 322L732 321M65 322L66 323L65 322z"/>
<path style="fill:#a7b7d3; stroke:none;" d="M154 322L155 323L154 322z"/>
<path style="fill:#7a90bc; stroke:none;" d="M214 322L215 323L214 322M244 322L245 323L244 322M555 322L556 323L555 322z"/>
<path style="fill:#a7b7d3; stroke:none;" d="M644 322L645 323L644 322M704 322L705 323L704 322z"/>
<path style="fill:#7a90bc; stroke:none;" d="M734 322L735 323L734 322M63 323L64 324L63 323z"/>
<path style="fill:#a7b7d3; stroke:none;" d="M152 323L153 324L152 323z"/>
<path style="fill:#7a90bc; stroke:none;" d="M212 323L213 324L212 323M242 323L243 324L242 323M557 323L558 324L557 323z"/>
<path style="fill:#a7b7d3; stroke:none;" d="M646 323L647 324L646 323z"/>
<path style="fill:#7a90bc; stroke:none;" d="M706 323L707 324L706 323M736 323L737 324L736 323M61 324L62 325L61 324z"/>
<path style="fill:#a7b7d3; stroke:none;" d="M150 324L151 325L150 324z"/>
<path style="fill:#7a90bc; stroke:none;" d="M210 324L211 325L210 324M240 324L241 325L240 324M559 324L560 325L559 324z"/>
<path style="fill:#a7b7d3; stroke:none;" d="M648 324L649 325L648 324z"/>
<path style="fill:#7a90bc; stroke:none;" d="M708 324L709 325L708 324M738 324L739 325L738 324M59 325L60 326L59 325z"/>
<path style="fill:#a7b7d3; stroke:none;" d="M148 325L149 326L148 325M208 325L209 326L208 325z"/>
<path style="fill:#7a90bc; stroke:none;" d="M238 325L239 326L238 325M561 325L562 326L561 325z"/>
<path style="fill:#a7b7d3; stroke:none;" d="M650 325L651 326L650 325z"/>
<path style="fill:#7a90bc; stroke:none;" d="M710 325L711 326L710 325M740 325L741 326L740 325M57 326L58 327L57 326z"/>
<path style="fill:#a7b7d3; stroke:none;" d="M146 326L147 327L146 326M206 326L207 327L206 326z"/>
<path style="fill:#7a90bc; stroke:none;" d="M236 326L237 327L236 326M563 326L564 327L563 326z"/>
<path style="fill:#a7b7d3; stroke:none;" d="M652 326L653 327L652 326z"/>
<path style="fill:#7a90bc; stroke:none;" d="M712 326L713 327L712 326M742 326L743 327L742 326M55 327L56 328L55 327z"/>
<path style="fill:#a7b7d3; stroke:none;" d="M144 327L145 328L144 327z"/>
<path style="fill:#7a90bc; stroke:none;" d="M204 327L205 328L204 327M234 327L235 328L234 327M565 327L566 328L565 327z"/>
<path style="fill:#a7b7d3; stroke:none;" d="M654 327L655 328L654 327z"/>
<path style="fill:#7a90bc; stroke:none;" d="M714 327L715 328L714 327M744 327L745 328L744 327M53 328L54 329L53 328z"/>
<path style="fill:#a7b7d3; stroke:none;" d="M142 328L143 329L142 328z"/>
<path style="fill:#7a90bc; stroke:none;" d="M202 328L203 329L202 328M232 328L233 329L232 328M567 328L568 329L567 328z"/>
<path style="fill:#a7b7d3; stroke:none;" d="M656 328L657 329L656 328M716 328L717 329L716 328z"/>
<path style="fill:#7a90bc; stroke:none;" d="M746 328L747 329L746 328M51 329L52 330L51 329z"/>
<path style="fill:#a7b7d3; stroke:none;" d="M140 329L141 330L140 329z"/>
<path style="fill:#7a90bc; stroke:none;" d="M200 329L201 330L200 329M230 329L231 330L230 329M569 329L570 330L569 329z"/>
<path style="fill:#a7b7d3; stroke:none;" d="M658 329L659 330L658 329M718 329L719 330L718 329z"/>
<path style="fill:#7a90bc; stroke:none;" d="M748 329L749 330L748 329M49 330L50 331L49 330z"/>
<path style="fill:#a7b7d3; stroke:none;" d="M138 330L139 331L138 330z"/>
<path style="fill:#7a90bc; stroke:none;" d="M198 330L199 331L198 330M228 330L229 331L228 330M571 330L572 331L571 330z"/>
<path style="fill:#a7b7d3; stroke:none;" d="M660 330L661 331L660 330M720 330L721 331L720 330z"/>
<path style="fill:#7a90bc; stroke:none;" d="M750 330L751 331L750 330M47 331L48 332L47 331z"/>
<path style="fill:#a7b7d3; stroke:none;" d="M136 331L137 332L136 331z"/>
<path style="fill:#7a90bc; stroke:none;" d="M196 331L197 332L196 331M226 331L227 332L226 331M573 331L574 332L573 331z"/>
<path style="fill:#a7b7d3; stroke:none;" d="M662 331L663 332L662 331z"/>
<path style="fill:#7a90bc; stroke:none;" d="M722 331L723 332L722 331M752 331L753 332L752 331M45 332L46 333L45 332z"/>
<path style="fill:#a7b7d3; stroke:none;" d="M134 332L135 333L134 332z"/>
<path style="fill:#7a90bc; stroke:none;" d="M194 332L195 333L194 332M224 332L225 333L224 332M575 332L576 333L575 332z"/>
<path style="fill:#a7b7d3; stroke:none;" d="M664 332L665 333L664 332z"/>
<path style="fill:#7a90bc; stroke:none;" d="M724 332L725 333L724 332M754 332L755 333L754 332M43 333L44 334L43 333z"/>
<path style="fill:#a7b7d3; stroke:none;" d="M132 333L133 334L132 333M192 333L193 334L192 333z"/>
<path style="fill:#7a90bc; stroke:none;" d="M222 333L223 334L222 333M577 333L578 334L577 333z"/>
<path style="fill:#a7b7d3; stroke:none;" d="M666 333L667 334L666 333z"/>
<path style="fill:#7a90bc; stroke:none;" d="M726 333L727 334L726 333M756 333L757 334L756 333M41 334L42 335L41 334z"/>
<path style="fill:#a7b7d3; stroke:none;" d="M130 334L131 335L130 334M190 334L191 335L190 334z"/>
<path style="fill:#7a90bc; stroke:none;" d="M220 334L221 335L220 334M579 334L580 335L579 334z"/>
<path style="fill:#a7b7d3; stroke:none;" d="M668 334L669 335L668 334z"/>
<path style="fill:#7a90bc; stroke:none;" d="M728 334L729 335L728 334M758 334L759 335L758 334M39 335L40 336L39 335z"/>
<path style="fill:#a7b7d3; stroke:none;" d="M128 335L129 336L128 335z"/>
<path style="fill:#7a90bc; stroke:none;" d="M188 335L189 336L188 335M218 335L219 336L218 335M581 335L582 336L581 335z"/>
<path style="fill:#a7b7d3; stroke:none;" d="M670 335L671 336L670 335z"/>
<path style="fill:#7a90bc; stroke:none;" d="M730 335L731 336L730 335M760 335L761 336L760 335M37 336L38 337L37 336z"/>
<path style="fill:#a7b7d3; stroke:none;" d="M126 336L127 337L126 336z"/>
<path style="fill:#7a90bc; stroke:none;" d="M186 336L187 337L186 336M216 336L217 337L216 336M583 336L584 337L583 336z"/>
<path style="fill:#a7b7d3; stroke:none;" d="M672 336L673 337L672 336M732 336L733 337L732 336z"/>
<path style="fill:#7a90bc; stroke:none;" d="M762 336L763 337L762 336M35 337L36 338L35 337z"/>
<path style="fill:#a7b7d3; stroke:none;" d="M124 337L125 338L124 337z"/>
<path style="fill:#7a90bc; stroke:none;" d="M184 337L185 338L184 337M214 337L215 338L214 337M585 337L586 338L585 337z"/>
<path style="fill:#a7b7d3; stroke:none;" d="M674 337L675 338L674 337M734 337L735 338L734 337z"/>
<path style="fill:#7a90bc; stroke:none;" d="M764 337L765 338L764 337M33 338L34 339L33 338z"/>
<path style="fill:#a7b7d3; stroke:none;" d="M122 338L123 339L122 338z"/>
<path style="fill:#7a90bc; stroke:none;" d="M182 338L183 339L182 338M212 338L213 339L212 338M587 338L588 339L587 338z"/>
<path style="fill:#a7b7d3; stroke:none;" d="M676 338L677 339L676 338M736 338L737 339L736 338z"/>
<path style="fill:#7a90bc; stroke:none;" d="M766 338L767 339L766 338M31 339L32 340L31 339z"/>
<path style="fill:#a7b7d3; stroke:none;" d="M120 339L121 340L120 339z"/>
<path style="fill:#7a90bc; stroke:none;" d="M180 339L181 340L180 339M210 339L211 340L210 339M589 339L590 340L589 339z"/>
<path style="fill:#a7b7d3; stroke:none;" d="M678 339L679 340L678 339z"/>
<path style="fill:#7a90bc; stroke:none;" d="M738 339L739 340L738 339M768 339L769 340L768 339M29 340L30 341L29 340z"/>
<path style="fill:#a7b7d3; stroke:none;" d="M118 340L119 341L118 340z"/>
<path style="fill:#7a90bc; stroke:none;" d="M178 340L179 341L178 340M208 340L209 341L208 340M591 340L592 341L591 340z"/>
<path style="fill:#a7b7d3; stroke:none;" d="M680 340L681 341L680 340z"/>
<path style="fill:#7a90bc; stroke:none;" d="M740 340L741 341L740 340M770 340L771 341L770 340M27 341L28 342L27 341z"/>
<path style="fill:#a7b7d3; stroke:none;" d="M116 341L117 342L116 341M176 341L177 342L176 341z"/>
<path style="fill:#7a90bc; stroke:none;" d="M206 341L207 342L206 341M593 341L594 342L593 341z"/>
<path style="fill:#a7b7d3; stroke:none;" d="M682 341L683 342L682 341z"/>
<path style="fill:#7a90bc; stroke:none;" d="M742 341L743 342L742 341M772 341L773 342L772 341M25 342L26 343L25 342z"/>
<path style="fill:#a7b7d3; stroke:none;" d="M114 342L115 343L114 342M174 342L175 343L174 342z"/>
<path style="fill:#7a90bc; stroke:none;" d="M204 342L205 343L204 342M595 342L596 343L595 342z"/>
<path style="fill:#a7b7d3; stroke:none;" d="M684 342L685 343L684 342z"/>
<path style="fill:#7a90bc; stroke:none;" d="M744 342L745 343L744 342M774 342L775 343L774 342M23 343L24 344L23 343z"/>
<path style="fill:#a7b7d3; stroke:none;" d="M112 343L113 344L112 343z"/>
<path style="fill:#7a90bc; stroke:none;" d="M172 343L173 344L172 343M202 343L203 344L202 343M597 343L598 344L597 343z"/>
<path style="fill:#a7b7d3; stroke:none;" d="M686 343L687 344L686 343z"/>
<path style="fill:#7a90bc; stroke:none;" d="M746 343L747 344L746 343M776 343L777 344L776 343M21 344L22 345L21 344z"/>
<path style="fill:#a7b7d3; stroke:none;" d="M110 344L111 345L110 344z"/>
<path style="fill:#7a90bc; stroke:none;" d="M170 344L171 345L170 344M200 344L201 345L200 344M599 344L600 345L599 344z"/>
<path style="fill:#a7b7d3; stroke:none;" d="M688 344L689 345L688 344M748 344L749 345L748 344z"/>
<path style="fill:#7a90bc; stroke:none;" d="M778 344L779 345L778 344M19 345L20 346L19 345z"/>
<path style="fill:#a7b7d3; stroke:none;" d="M108 345L109 346L108 345z"/>
<path style="fill:#7a90bc; stroke:none;" d="M168 345L169 346L168 345M198 345L199 346L198 345M601 345L602 346L601 345z"/>
<path style="fill:#a7b7d3; stroke:none;" d="M690 345L691 346L690 345M750 345L751 346L750 345z"/>
<path style="fill:#7a90bc; stroke:none;" d="M780 345L781 346L780 345M17 346L18 347L17 346z"/>
<path style="fill:#a7b7d3; stroke:none;" d="M106 346L107 347L106 346z"/>
<path style="fill:#7a90bc; stroke:none;" d="M166 346L167 347L166 346M196 346L197 347L196 346M603 346L604 347L603 346z"/>
<path style="fill:#a7b7d3; stroke:none;" d="M692 346L693 347L692 346M752 346L753 347L752 346z"/>
<path style="fill:#7a90bc; stroke:none;" d="M782 346L783 347L782 346M15 347L16 348L15 347z"/>
<path style="fill:#a7b7d3; stroke:none;" d="M104 347L105 348L104 347z"/>
<path style="fill:#7a90bc; stroke:none;" d="M164 347L165 348L164 347M194 347L195 348L194 347M605 347L606 348L605 347z"/>
<path style="fill:#a7b7d3; stroke:none;" d="M694 347L695 348L694 347z"/>
<path style="fill:#7a90bc; stroke:none;" d="M754 347L755 348L754 347M784 347L785 348L784 347M13 348L14 349L13 348z"/>
<path style="fill:#a7b7d3; stroke:none;" d="M102 348L103 349L102 348z"/>
<path style="fill:#7a90bc; stroke:none;" d="M162 348L163 349L162 348M192 348L193 349L192 348M607 348L608 349L607 348z"/>
<path style="fill:#a7b7d3; stroke:none;" d="M696 348L697 349L696 348z"/>
<path style="fill:#7a90bc; stroke:none;" d="M756 348L757 349L756 348M786 348L787 349L786 348M11 349L12 350L11 349z"/>
<path style="fill:#a7b7d3; stroke:none;" d="M100 349L101 350L100 349M160 349L161 350L160 349z"/>
<path style="fill:#7a90bc; stroke:none;" d="M190 349L191 350L190 349M609 349L610 350L609 349z"/>
<path style="fill:#a7b7d3; stroke:none;" d="M698 349L699 350L698 349z"/>
<path style="fill:#7a90bc; stroke:none;" d="M758 349L759 350L758 349M788 349L789 350L788 349M9 350L10 351L9 350z"/>
<path style="fill:#a7b7d3; stroke:none;" d="M98 350L99 351L98 350M158 350L159 351L158 350z"/>
<path style="fill:#7a90bc; stroke:none;" d="M188 350L189 351L188 350M611 350L612 351L611 350z"/>
<path style="fill:#a7b7d3; stroke:none;" d="M700 350L701 351L700 350z"/>
<path style="fill:#7a90bc; stroke:none;" d="M760 350L761 351L760 350M790 350L791 351L790 350M7 351L8 352L7 351z"/>
<path style="fill:#a7b7d3; stroke:none;" d="M96 351L97 352L96 351z"/>
<path style="fill:#7a90bc; stroke:none;" d="M156 351L157 352L156 351M186 351L187 352L186 351M613 351L614 352L613 351z"/>
<path style="fill:#a7b7d3; stroke:none;" d="M702 351L703 352L702 351z"/>
<path style="fill:#7a90bc; stroke:none;" d="M762 351L763 352L762 351M792 351L793 352L792 351M5 352L6 353L5 352z"/>
<path style="fill:#a7b7d3; stroke:none;" d="M94 352L95 353L94 352z"/>
<path style="fill:#7a90bc; stroke:none;" d="M154 352L155 353L154 352M184 352L185 353L184 352M615 352L616 353L615 352z"/>
<path style="fill:#a7b7d3; stroke:none;" d="M704 352L705 353L704 352M764 352L765 353L764 352z"/>
<path style="fill:#7a90bc; stroke:none;" d="M794 352L795 353L794 352M3 353L4 354L3 353z"/>
<path style="fill:#a7b7d3; stroke:none;" d="M92 353L93 354L92 353z"/>
<path style="fill:#7a90bc; stroke:none;" d="M152 353L153 354L152 353M182 353L183 354L182 353M617 353L618 354L617 353z"/>
<path style="fill:#a7b7d3; stroke:none;" d="M706 353L707 354L706 353M766 353L767 354L766 353z"/>
<path style="fill:#7a90bc; stroke:none;" d="M796 353L797 354L796 353M1 354L2 355L1 354z"/>
<path style="fill:#a7b7d3; stroke:none;" d="M90 354L91 355L90 354z"/>
<path style="fill:#7a90bc; stroke:none;" d="M150 354L151 355L150 354M180 354L181 355L180 354M619 354L620 355L619 354z"/>
<path style="fill:#a7b7d3; stroke:none;" d="M708 354L709 355L708 354M768 354L769 355L768 354z"/>
<path style="fill:#7a90bc; stroke:none;" d="M798 354L799 355L798 354z"/>
<path style="fill:#a7b7d3; stroke:none;" d="M88 355L89 356L88 355z"/>
<path style="fill:#7a90bc; stroke:none;" d="M148 355L149 356L148 355M178 355L179 356L178 355M621 355L622 356L621 355z"/>
<path style="fill:#a7b7d3; stroke:none;" d="M710 355L711 356L710 355z"/>
<path style="fill:#7a90bc; stroke:none;" d="M770 355L771 356L770 355z"/>
<path style="fill:#a7b7d3; stroke:none;" d="M86 356L87 357L86 356z"/>
<path style="fill:#7a90bc; stroke:none;" d="M146 356L147 357L146 356M176 356L177 357L176 356M623 356L624 357L623 356z"/>
<path style="fill:#a7b7d3; stroke:none;" d="M712 356L713 357L712 356z"/>
<path style="fill:#7a90bc; stroke:none;" d="M772 356L773 357L772 356z"/>
<path style="fill:#a7b7d3; stroke:none;" d="M84 357L85 358L84 357M144 357L145 358L144 357z"/>
<path style="fill:#7a90bc; stroke:none;" d="M174 357L175 358L174 357M625 357L626 358L625 357z"/>
<path style="fill:#a7b7d3; stroke:none;" d="M714 357L715 358L714 357z"/>
<path style="fill:#7a90bc; stroke:none;" d="M774 357L775 358L774 357z"/>
<path style="fill:#a7b7d3; stroke:none;" d="M82 358L83 359L82 358M142 358L143 359L142 358z"/>
<path style="fill:#7a90bc; stroke:none;" d="M172 358L173 359L172 358M627 358L628 359L627 358z"/>
<path style="fill:#a7b7d3; stroke:none;" d="M716 358L717 359L716 358z"/>
<path style="fill:#7a90bc; stroke:none;" d="M776 358L777 359L776 358z"/>
<path style="fill:#a7b7d3; stroke:none;" d="M80 359L81 360L80 359z"/>
<path style="fill:#7a90bc; stroke:none;" d="M140 359L141 360L140 359M170 359L171 360L170 359M629 359L630 360L629 359z"/>
<path style="fill:#a7b7d3; stroke:none;" d="M718 359L719 360L718 359z"/>
<path style="fill:#7a90bc; stroke:none;" d="M778 359L779 360L778 359z"/>
<path style="fill:#a7b7d3; stroke:none;" d="M78 360L79 361L78 360z"/>
<path style="fill:#7a90bc; stroke:none;" d="M138 360L139 361L138 360M168 360L169 361L168 360M631 360L632 361L631 360z"/>
<path style="fill:#a7b7d3; stroke:none;" d="M720 360L721 361L720 360M780 360L781 361L780 360M76 361L77 362L76 361z"/>
<path style="fill:#7a90bc; stroke:none;" d="M136 361L137 362L136 361M166 361L167 362L166 361M633 361L634 362L633 361z"/>
<path style="fill:#a7b7d3; stroke:none;" d="M722 361L723 362L722 361M782 361L783 362L782 361M74 362L75 363L74 362z"/>
<path style="fill:#7a90bc; stroke:none;" d="M134 362L135 363L134 362M164 362L165 363L164 362M635 362L636 363L635 362z"/>
<path style="fill:#a7b7d3; stroke:none;" d="M724 362L725 363L724 362M784 362L785 363L784 362M72 363L73 364L72 363z"/>
<path style="fill:#7a90bc; stroke:none;" d="M132 363L133 364L132 363M162 363L163 364L162 363M637 363L638 364L637 363z"/>
<path style="fill:#a7b7d3; stroke:none;" d="M726 363L727 364L726 363z"/>
<path style="fill:#7a90bc; stroke:none;" d="M786 363L787 364L786 363z"/>
<path style="fill:#a7b7d3; stroke:none;" d="M70 364L71 365L70 364z"/>
<path style="fill:#7a90bc; stroke:none;" d="M130 364L131 365L130 364M160 364L161 365L160 364M639 364L640 365L639 364z"/>
<path style="fill:#a7b7d3; stroke:none;" d="M728 364L729 365L728 364z"/>
<path style="fill:#7a90bc; stroke:none;" d="M788 364L789 365L788 364z"/>
<path style="fill:#a7b7d3; stroke:none;" d="M68 365L69 366L68 365M128 365L129 366L128 365z"/>
<path style="fill:#7a90bc; stroke:none;" d="M158 365L159 366L158 365M641 365L642 366L641 365z"/>
<path style="fill:#a7b7d3; stroke:none;" d="M730 365L731 366L730 365z"/>
<path style="fill:#7a90bc; stroke:none;" d="M790 365L791 366L790 365z"/>
<path style="fill:#a7b7d3; stroke:none;" d="M66 366L67 367L66 366M126 366L127 367L126 366z"/>
<path style="fill:#7a90bc; stroke:none;" d="M156 366L157 367L156 366M643 366L644 367L643 366z"/>
<path style="fill:#a7b7d3; stroke:none;" d="M732 366L733 367L732 366z"/>
<path style="fill:#7a90bc; stroke:none;" d="M792 366L793 367L792 366z"/>
<path style="fill:#a7b7d3; stroke:none;" d="M64 367L65 368L64 367z"/>
<path style="fill:#7a90bc; stroke:none;" d="M124 367L125 368L124 367M154 367L155 368L154 367M645 367L646 368L645 367z"/>
<path style="fill:#a7b7d3; stroke:none;" d="M734 367L735 368L734 367z"/>
<path style="fill:#7a90bc; stroke:none;" d="M794 367L795 368L794 367z"/>
<path style="fill:#a7b7d3; stroke:none;" d="M62 368L63 369L62 368z"/>
<path style="fill:#7a90bc; stroke:none;" d="M122 368L123 369L122 368M152 368L153 369L152 368M647 368L648 369L647 368z"/>
<path style="fill:#a7b7d3; stroke:none;" d="M736 368L737 369L736 368M796 368L797 369L796 368M60 369L61 370L60 369z"/>
<path style="fill:#7a90bc; stroke:none;" d="M120 369L121 370L120 369M150 369L151 370L150 369M649 369L650 370L649 369z"/>
<path style="fill:#a7b7d3; stroke:none;" d="M738 369L739 370L738 369M798 369L799 370L798 369M58 370L59 371L58 370z"/>
<path style="fill:#7a90bc; stroke:none;" d="M118 370L119 371L118 370M148 370L149 371L148 370M651 370L652 371L651 370z"/>
<path style="fill:#a7b7d3; stroke:none;" d="M740 370L741 371L740 370M56 371L57 372L56 371z"/>
<path style="fill:#7a90bc; stroke:none;" d="M116 371L117 372L116 371M146 371L147 372L146 371M653 371L654 372L653 371z"/>
<path style="fill:#a7b7d3; stroke:none;" d="M742 371L743 372L742 371M54 372L55 373L54 372z"/>
<path style="fill:#7a90bc; stroke:none;" d="M114 372L115 373L114 372M144 372L145 373L144 372M655 372L656 373L655 372z"/>
<path style="fill:#a7b7d3; stroke:none;" d="M744 372L745 373L744 372M52 373L53 374L52 373M112 373L113 374L112 373z"/>
<path style="fill:#7a90bc; stroke:none;" d="M142 373L143 374L142 373M657 373L658 374L657 373z"/>
<path style="fill:#a7b7d3; stroke:none;" d="M746 373L747 374L746 373M50 374L51 375L50 374M110 374L111 375L110 374z"/>
<path style="fill:#7a90bc; stroke:none;" d="M140 374L141 375L140 374M659 374L660 375L659 374z"/>
<path style="fill:#a7b7d3; stroke:none;" d="M748 374L749 375L748 374M48 375L49 376L48 375z"/>
<path style="fill:#7a90bc; stroke:none;" d="M108 375L109 376L108 375M138 375L139 376L138 375M661 375L662 376L661 375z"/>
<path style="fill:#a7b7d3; stroke:none;" d="M750 375L751 376L750 375M46 376L47 377L46 376z"/>
<path style="fill:#7a90bc; stroke:none;" d="M106 376L107 377L106 376M136 376L137 377L136 376M663 376L664 377L663 376z"/>
<path style="fill:#a7b7d3; stroke:none;" d="M752 376L753 377L752 376M44 377L45 378L44 377z"/>
<path style="fill:#7a90bc; stroke:none;" d="M104 377L105 378L104 377M134 377L135 378L134 377M665 377L666 378L665 377z"/>
<path style="fill:#a7b7d3; stroke:none;" d="M754 377L755 378L754 377M42 378L43 379L42 378z"/>
<path style="fill:#7a90bc; stroke:none;" d="M102 378L103 379L102 378M132 378L133 379L132 378M667 378L668 379L667 378z"/>
<path style="fill:#a7b7d3; stroke:none;" d="M756 378L757 379L756 378M40 379L41 380L40 379z"/>
<path style="fill:#7a90bc; stroke:none;" d="M100 379L101 380L100 379M130 379L131 380L130 379M669 379L670 380L669 379z"/>
<path style="fill:#a7b7d3; stroke:none;" d="M758 379L759 380L758 379M38 380L39 381L38 380z"/>
<path style="fill:#7a90bc; stroke:none;" d="M98 380L99 381L98 380M128 380L129 381L128 380M671 380L672 381L671 380z"/>
<path style="fill:#a7b7d3; stroke:none;" d="M760 380L761 381L760 380M36 381L37 382L36 381M96 381L97 382L96 381z"/>
<path style="fill:#7a90bc; stroke:none;" d="M126 381L127 382L126 381M673 381L674 382L673 381z"/>
<path style="fill:#a7b7d3; stroke:none;" d="M762 381L763 382L762 381M34 382L35 383L34 382M94 382L95 383L94 382z"/>
<path style="fill:#7a90bc; stroke:none;" d="M124 382L125 383L124 382M675 382L676 383L675 382z"/>
<path style="fill:#a7b7d3; stroke:none;" d="M764 382L765 383L764 382M32 383L33 384L32 383z"/>
<path style="fill:#7a90bc; stroke:none;" d="M92 383L93 384L92 383M122 383L123 384L122 383M677 383L678 384L677 383z"/>
<path style="fill:#a7b7d3; stroke:none;" d="M766 383L767 384L766 383M30 384L31 385L30 384z"/>
<path style="fill:#7a90bc; stroke:none;" d="M90 384L91 385L90 384M120 384L121 385L120 384M679 384L680 385L679 384z"/>
<path style="fill:#a7b7d3; stroke:none;" d="M768 384L769 385L768 384M28 385L29 386L28 385z"/>
<path style="fill:#7a90bc; stroke:none;" d="M88 385L89 386L88 385M118 385L119 386L118 385M681 385L682 386L681 385z"/>
<path style="fill:#a7b7d3; stroke:none;" d="M770 385L771 386L770 385M26 386L27 387L26 386z"/>
<path style="fill:#7a90bc; stroke:none;" d="M86 386L87 387L86 386M116 386L117 387L116 386M683 386L684 387L683 386z"/>
<path style="fill:#a7b7d3; stroke:none;" d="M772 386L773 387L772 386M24 387L25 388L24 387z"/>
<path style="fill:#7a90bc; stroke:none;" d="M84 387L85 388L84 387M114 387L115 388L114 387M685 387L686 388L685 387z"/>
<path style="fill:#a7b7d3; stroke:none;" d="M774 387L775 388L774 387M22 388L23 389L22 388z"/>
<path style="fill:#7a90bc; stroke:none;" d="M82 388L83 389L82 388M112 388L113 389L112 388M687 388L688 389L687 388z"/>
<path style="fill:#a7b7d3; stroke:none;" d="M776 388L777 389L776 388M20 389L21 390L20 389M80 389L81 390L80 389z"/>
<path style="fill:#7a90bc; stroke:none;" d="M110 389L111 390L110 389M689 389L690 390L689 389z"/>
<path style="fill:#a7b7d3; stroke:none;" d="M778 389L779 390L778 389M18 390L19 391L18 390M78 390L79 391L78 390z"/>
<path style="fill:#7a90bc; stroke:none;" d="M108 390L109 391L108 390M691 390L692 391L691 390z"/>
<path style="fill:#a7b7d3; stroke:none;" d="M780 390L781 391L780 390M16 391L17 392L16 391z"/>
<path style="fill:#7a90bc; stroke:none;" d="M76 391L77 392L76 391M106 391L107 392L106 391M693 391L694 392L693 391z"/>
<path style="fill:#a7b7d3; stroke:none;" d="M782 391L783 392L782 391M14 392L15 393L14 392z"/>
<path style="fill:#7a90bc; stroke:none;" d="M74 392L75 393L74 392M104 392L105 393L104 392M695 392L696 393L695 392z"/>
<path style="fill:#a7b7d3; stroke:none;" d="M784 392L785 393L784 392M12 393L13 394L12 393z"/>
<path style="fill:#7a90bc; stroke:none;" d="M72 393L73 394L72 393M102 393L103 394L102 393M697 393L698 394L697 393z"/>
<path style="fill:#a7b7d3; stroke:none;" d="M786 393L787 394L786 393M10 394L11 395L10 394z"/>
<path style="fill:#7a90bc; stroke:none;" d="M70 394L71 395L70 394M100 394L101 395L100 394M699 394L700 395L699 394z"/>
<path style="fill:#a7b7d3; stroke:none;" d="M788 394L789 395L788 394M8 395L9 396L8 395z"/>
<path style="fill:#7a90bc; stroke:none;" d="M68 395L69 396L68 395M98 395L99 396L98 395M701 395L702 396L701 395z"/>
<path style="fill:#a7b7d3; stroke:none;" d="M790 395L791 396L790 395M6 396L7 397L6 396z"/>
<path style="fill:#7a90bc; stroke:none;" d="M66 396L67 397L66 396M96 396L97 397L96 396M703 396L704 397L703 396z"/>
<path style="fill:#a7b7d3; stroke:none;" d="M792 396L793 397L792 396M4 397L5 398L4 397M64 397L65 398L64 397z"/>
<path style="fill:#7a90bc; stroke:none;" d="M94 397L95 398L94 397M705 397L706 398L705 397z"/>
<path style="fill:#a7b7d3; stroke:none;" d="M794 397L795 398L794 397M2 398L3 399L2 398M62 398L63 399L62 398z"/>
<path style="fill:#7a90bc; stroke:none;" d="M92 398L93 399L92 398M707 398L708 399L707 398z"/>
<path style="fill:#a7b7d3; stroke:none;" d="M796 398L797 399L796 398M0 399L1 400L0 399z"/>
<path style="fill:#7a90bc; stroke:none;" d="M1 399L2 400L1 399M60 399L61 400L60 399M90 399L91 400L90 399M709 399L710 400L709 399z"/>
<path style="fill:#a7b7d3; stroke:none;" d="M798 399L799 400L798 399z"/>
</svg>
