<?xml version="1.0" standalone="yes"?>
<svg xmlns="http://www.w3.org/2000/svg" width="450" height="300">
<path style="fill:#239f47; stroke:none;" d="M0 0L0 300L165 300L165 231C122.203 229.752 92.7777 192.589 89.3125 152.576C88.4567 142.694 96.2001 133.123 94 123C99.0625 120.074 101.79 114.823 101 109C108.678 106.586 112.79 99.6911 119 94.8881C131.351 85.3357 148.897 76.3417 165 78L165 0L0 0z"/>
<path style="fill:#bf0227; stroke:none;" d="M165 0L165 78C189.578 75.4011 222.075 93.0838 233.585 115.039C238.131 123.71 238.189 143.924 246 149C240.742 161.413 241.011 176.419 235.427 189C224.445 213.741 191.189 230.783 165 231L165 300L450 300L450 0L165 0z"/>
<path style="fill:#43362f; stroke:none;" d="M101 109C101.044 114.9 98.4297 119.24 94 123C95.3678 132.629 90.0044 141.537 88.804 150.83C87.1399 163.713 95.3454 186.102 102.245 196.741C131.61 242.017 198.485 239.04 229.907 198.741C240.905 184.636 240.916 165.329 246 149C237.043 140.451 240.3 122.533 232.438 112.285C209.39 82.2485 170.429 68.2269 135 84.3125C121.804 90.3039 113.541 103.342 101 109z"/>
<path style="fill:#e4d35e; stroke:none;" d="M159 78L159 102L161 102L161 78L159 78M169 78L169 102L171 102L171 78L169 78M107 110L102 110L104 112L95 124L95 125L102 127L102 128L96 127L92 148L93 148L97 147L97 148L89 152L93 152L93 153C90.3833 155.372 92.158 157.065 95 158L95 159L91 161L96 161L95 168L94 168L92 163L98 186L100 184L101 184L103 185L103 186L99 189L103 189L103 190C100.903 192.252 102.713 193.68 105 195L103 198L110 196L109 199L106 198C116.448 214.704 138.108 227.587 158 228L158 227L155 227L155 226L158 226L156 221L156 220L158 218C145.849 216.362 134.291 210.919 125 203L143 203L143 202L121 200L121 199L137 199C131.176 192.045 123.068 194.555 115 194L116 198L112 194L131 193L131 192L121 191L121 190L127 188L124 187L124 186L126 185L121 182L121 181L123 179C117.239 178.873 108.68 186.269 105 180L106 180L107 183L108 183L102 160L96 161L96 160L103 159L107 163L107 164L104 165L120 172L118 170L118 169C119.759 167.211 118.936 166.329 117 165L117 164L119 162L103 159L103 158L119 154L116 151L116 150L119 150L117 144L117 143C119.788 140.57 119.086 136.736 117 134L117 130L117 129C120.791 125.687 119.552 118.83 115 117L115 116L119 117L116 114L119 102L127 100L126 102L127 102C137.303 97.1839 146.282 90.9571 158 90L158 88L154 88L154 87L158 87L158 82L153 82L153 81L158 79C140.25 82.3443 113.538 90.7676 107 110M162 79L162 102L168 102L168 79L162 79M172 79L172 81L180 81L180 82L172 82L172 87L179 87L179 88L172 88L172 89L213 102L215 106L213 115L220 116L220 117L213 116L213 117L225 120L225 121L224 125L223 125L222 122C220.007 122.486 211.867 124.873 215 127C213.337 129.387 212.679 130.971 215 133L215 134L213 136L226 131L226 130L223 130L223 129L226 127L231 144L232 144L232 139L233 139L235 145L235 146L213 140L216 142L216 143L213 143L215 148L215 149L213 152L239 160L239 161C236.087 160.5 234.683 159.877 234 163L233 163L233 159L231 159L231 165L227 164L227 163L230 163L230 158L225 159L225 158L227 158L227 157L213 160L215 162L215 163C210.224 163.955 215.283 167.87 215 169L230 165L227 179L212 168L210 182C207.211 185.424 214.531 189.842 217 192L201 192L201 193L219 193L195 198L195 199L214 197L189 202L189 203L208 203C198.43 211.275 185.814 217.441 173 218L173 220L177 220L177 221L173 221L173 226L178 226L178 227L173 229C189.973 225.802 219.55 218.415 225 199L229 200L236 188L236 187L233 182L236 184L241 162L240 162L240 164L239 164L244 161L241 152L241 151L245 151L245 150L235 147L235 146L239 144L240 144L240 147L241 147L236 124L233 126L232 123L236 123L236 122L232 121L232 120L233 113L225 111L225 110L227 109C213.966 91.707 193.891 79.9399 172 79z"/>
<path style="fill:#43362f; stroke:none;" d="M107 111L116 113L118 108L109 110C120.451 96.8943 135.222 85.396 153 83C138.049 77.6518 113.899 99.9696 107 111M180 82L180 83C195.774 85.1258 212.817 94.9645 222 108L215 107L215 108L225 110C218 94.9895 196.09 83.3142 180 82M127 100L154 89C146.134 86.1861 131.979 94.1482 127 100M179 88L179 89L208 101C201.168 93.5465 189.057 88.4596 179 88M130 100L130 101L153 92C146.004 89.5182 135.803 96.4515 130 100z"/>
<path style="fill:#239f47; stroke:none;" d="M130 101L130 102L158 102L158 91C147.681 91.4499 138.936 96.2984 130 101z"/>
<path style="fill:#bf0227; stroke:none;" d="M172 91L172 102L203 102C195.039 94.5471 182.701 91.0886 172 91z"/>
<path style="fill:#43362f; stroke:none;" d="M184 92L184 93L190 94L184 92M190 94L190 95L200 99L200 98L190 94M200 99L203 101L200 99z"/>
<path style="fill:#bf0227; stroke:none;" d="M120 103C120 137.568 109.256 196.082 155 205.985C163.091 207.737 170.887 206.64 179 206L179 207C172.72 207.723 173.004 211.502 173 217C184.735 216.488 195.369 211.373 205 205L205 204L185 204L185 203C193.222 200.58 200.12 194.597 204 187L212 189L212 188L208 185L207 185L205 187C215.911 160.758 212 131.065 212 103L120 103z"/>
<path style="fill:#43362f; stroke:none;" d="M124 105L125 106L124 105z"/>
<path style="fill:#e4d35e; stroke:none;" d="M125 105L123 121L137 121L138 112L138 111L137 106L133 106L134 109L132 105L129 105L129 109L127 109L127 105L125 105z"/>
<path style="fill:#43362f; stroke:none;" d="M127 105L127 109L129 109L129 105L127 105z"/>
<path style="fill:#e4d35e; stroke:none;" d="M159 105L158 121L172 121L173 112L173 111L172 106L168 106L169 109L166 109L164 105L164 109L162 109L162 105L159 105z"/>
<path style="fill:#43362f; stroke:none;" d="M162 105L162 109C163.813 107.444 163.813 106.556 162 105M166 105L167 106L166 105M168 105L169 106L168 105M195 105L196 106L195 105z"/>
<path style="fill:#e4d35e; stroke:none;" d="M196 105L194 111L194 112L194 121L208 121L209 112L209 111L208 106L204 106L205 109L203 105L200 105L200 109L198 109L198 105L196 105z"/>
<path style="fill:#43362f; stroke:none;" d="M198 105L198 109L200 109L200 105L198 105M132 106L134 109L132 106M137 106L138 107L137 106z"/>
<path style="fill:#bf0227; stroke:none;" d="M162.333 106.667L162.667 107.333L162.333 106.667z"/>
<path style="fill:#43362f; stroke:none;" d="M167 106L166 109L169 109L167 106M172 106L173 107L172 106M203 106L205 109L203 106M124.333 107.667L124.667 108.333L124.333 107.667M136 107L137 108L136 107M171 107L172 108L171 107M195.333 107.667L195.667 108.333L195.333 107.667M207 107L208 108L207 107z"/>
<path style="fill:#e4d35e; stroke:none;" d="M222 108L223 109L222 108z"/>
<path style="fill:#43362f; stroke:none;" d="M123.333 109.667L123.667 110.333L123.333 109.667M136 109L136 111L138 111L136 109M158.333 109.667L158.667 110.333L158.333 109.667M171 109L171 111L173 111L171 109M207 109L207 111L209 111L207 109M194.667 110.333L195.333 110.667L194.667 110.333M214 110L214 111L232 115L232 114L214 110M122 111L123 112L122 111M157 111L158 112L157 111M193 111L194 112L193 111M104 112L104 113L115 116L115 115L104 112z"/>
<path style="fill:#239f47; stroke:none;" d="M118 112L119 113L118 112z"/>
<path style="fill:#43362f; stroke:none;" d="M123 112L123 120L124 120L123 112M136 112L136 120L137 120L138 112L136 112M158 112L158 120L159 120L158 112M171 112L171 120L172 120L173 112L171 112M194.667 112.333L195.333 112.667L194.667 112.333M207 112L207 120L208 120L209 112L207 112M220 117L220 118L232 120L220 117M194 119L195 120L194 119z"/>
<path style="fill:#bf0227; stroke:none;" d="M213 119L213 124L220 121L213 119z"/>
<path style="fill:#43362f; stroke:none;" d="M137 120L138 121L137 120M172 120L173 121L172 120M208 120L209 121L208 120M225 121L231 139L232 139L226 122L232 123L225 121M98 123L98 124L117 129L117 128L98 123M141 123L141 163L142 163C142 151.566 145.411 133.512 141 123z"/>
<path style="fill:#239f47; stroke:none;" d="M142 123L142 124L191 124C178.348 118.691 155.788 123 142 123z"/>
<path style="fill:#43362f; stroke:none;" d="M191 123L191 163L192 163C192 151.566 195.411 133.512 191 123z"/>
<path style="fill:#fafafb; stroke:none;" d="M142 124C142 137.919 139.121 159.806 146.479 172C157.37 190.047 182.023 186.673 189.031 167C193.321 154.956 190 136.747 190 124L142 124z"/>
<path style="fill:#e4d35e; stroke:none;" d="M190 124L190 163L191 163C191 151.828 194.311 134.274 190 124z"/>
<path style="fill:#43362f; stroke:none;" d="M215 126L215 127L222 125L215 126M224.333 125.667L224.667 126.333L224.333 125.667M234 126L238 144L239 144L234 126M225 127L223 129L223 130L226 130L226 131L219 133L219 134L227 132L229 143L220 141L220 142L235 146L235 145L233 139L232 139L232 144L231 144L225 127M102 128L102 129C104.1 132.604 100.386 143.813 97 146L97 147L118 141L118 140L107 131L117 133L117 132L102 128z"/>
<path style="fill:#239f47; stroke:none;" d="M159 128L160 129L159 128z"/>
<path style="fill:#43362f; stroke:none;" d="M171 128C168.214 128 164.843 127.517 162.148 128.318C151.583 131.458 168.39 152.308 170.852 136.985C171.318 134.086 171 130.93 171 128z"/>
<path style="fill:#239f47; stroke:none;" d="M171 128L171 139L172 139L171 128z"/>
<path style="fill:#43362f; stroke:none;" d="M97 129L94 146L95 146L97 129z"/>
<path style="fill:#239f47; stroke:none;" d="M162 129L163 130L162 129M168 129L168 133L169 133L168 129z"/>
<path style="fill:#e4d35e; stroke:none;" d="M104 130L101 145L102 145L106 130L104 130z"/>
<path style="fill:#fafafb; stroke:none;" d="M161 130L161 132L164 132L164 130L161 130M167 130L167 132L169 132L169 130L167 130z"/>
<path style="fill:#43362f; stroke:none;" d="M215 132L215 133L223 131L215 132z"/>
<path style="fill:#239f47; stroke:none;" d="M162 132L163 133L162 132z"/>
<path style="fill:#bf0227; stroke:none;" d="M213 138L229 143L227 132L213 138z"/>
<path style="fill:#e4d35e; stroke:none;" d="M106 133C106.762 137.83 109.333 139.887 114 141L106 133z"/>
<path style="fill:#239f47; stroke:none;" d="M164 133L165 134L164 133z"/>
<path style="fill:#fafafb; stroke:none;" d="M165 133L164 136L167 134L165 133z"/>
<path style="fill:#239f47; stroke:none;" d="M159 135L159 139L160 139L159 135M166 135L167 136L166 135M105 137L104 144L110 142L105 137z"/>
<path style="fill:#43362f; stroke:none;" d="M106 137L107 138L106 137z"/>
<path style="fill:#e4d35e; stroke:none;" d="M161 137L162 138L161 137z"/>
<path style="fill:#fafafb; stroke:none;" d="M161 139L164 137L161 139M167 137L167 139L169 139L169 137L167 137z"/>
<path style="fill:#239f47; stroke:none;" d="M169.333 137.667L169.667 138.333L169.333 137.667z"/>
<path style="fill:#43362f; stroke:none;" d="M107 138L108 139L107 138z"/>
<path style="fill:#e4d35e; stroke:none;" d="M162 139L163 140L162 139z"/>
<path style="fill:#239f47; stroke:none;" d="M167 139L168 140L167 139z"/>
<path style="fill:#e4d35e; stroke:none;" d="M168 139L169 140L168 139z"/>
<path style="fill:#239f47; stroke:none;" d="M160 140L161 141L160 140z"/>
<path style="fill:#e4d35e; stroke:none;" d="M170 140L171 141L170 140z"/>
<path style="fill:#239f47; stroke:none;" d="M161 141L162 142L161 141z"/>
<path style="fill:#e4d35e; stroke:none;" d="M169 141L170 142L169 141z"/>
<path style="fill:#239f47; stroke:none;" d="M163 142L164 143L163 142M167 142L168 143L167 142z"/>
<path style="fill:#43362f; stroke:none;" d="M216 143L216 144L241 151L241 150L216 143M93 151L93 152L117 145L93 151z"/>
<path style="fill:#e4d35e; stroke:none;" d="M142 145L142 163L143 163L142 145z"/>
<path style="fill:#43362f; stroke:none;" d="M124 147L124 148L128 150L132 147L124 147M134.667 146.333L135.333 146.667L134.667 146.333z"/>
<path style="fill:#e4d35e; stroke:none;" d="M125 147L123 163L138 163L138 162L137 148L133 148L131 151L132 147L129 151L127 151L127 147L125 147z"/>
<path style="fill:#239f47; stroke:none;" d="M145 147L146 148L145 147z"/>
<path style="fill:#43362f; stroke:none;" d="M157 147C154.213 147 150.844 146.517 148.148 147.318C137.584 150.456 153.065 170.474 156.682 156.956C157.507 153.875 157 150.168 157 147z"/>
<path style="fill:#239f47; stroke:none;" d="M157 147L157 158L158 158L157 147z"/>
<path style="fill:#43362f; stroke:none;" d="M160 147C160 150.407 159.364 154.691 160.742 157.891C162.549 162.085 168.331 162.663 170.821 158.721C172.819 155.559 172 150.572 172 147L160 147z"/>
<path style="fill:#239f47; stroke:none;" d="M175 147L176 148L175 147z"/>
<path style="fill:#43362f; stroke:none;" d="M187 147C184.214 147 180.843 146.517 178.148 147.318C167.583 150.458 184.39 171.308 186.852 155.985C187.318 153.086 187 149.93 187 147z"/>
<path style="fill:#239f47; stroke:none;" d="M187 147L187 158L188 158L187 147z"/>
<path style="fill:#e4d35e; stroke:none;" d="M196 147L194 162L194 163L209 163L209 162L207 147L205 147L205 151L202 151L202 150L200 147L200 151L198 151L198 147L196 147z"/>
<path style="fill:#43362f; stroke:none;" d="M198.667 147.333L199.333 147.667L198.667 147.333M202 147L202 151L202 147M132 148L131 151L134 149L132 148M137 148L138 149L137 148z"/>
<path style="fill:#239f47; stroke:none;" d="M148 148L149 149L148 148M153 148L153 149L155 151L156 151L153 148M163 148L163 152L164 152L163 148M168 148L168 152L169 152L168 148z"/>
<path style="fill:#e4d35e; stroke:none;" d="M172 148L172 157L173 157L172 148z"/>
<path style="fill:#239f47; stroke:none;" d="M178 148L179 149L178 148M183 148L183 149L184 152L185 152L183 148z"/>
<path style="fill:#43362f; stroke:none;" d="M195 148L196 149L195 148z"/>
<path style="fill:#bf0227; stroke:none;" d="M198.667 148.333L199.333 148.667L198.667 148.333z"/>
<path style="fill:#43362f; stroke:none;" d="M124.333 149.667L124.667 150.333L124.333 149.667M136 149L137 150L136 149z"/>
<path style="fill:#fafafb; stroke:none;" d="M147 151L150 149L147 151M153 149L153 151L155 151L155 149L153 149M162 149L162 151L164 151L164 149L162 149M168 149L168 151L170 151L170 149L168 149M177 149L177 151L180 151L180 149L177 149M183 149L183 151L185 151L185 149L183 149z"/>
<path style="fill:#43362f; stroke:none;" d="M198 149L198 151L200 151L200 149L198 149M215 149L215 150L242 158L242 157L215 149z"/>
<path style="fill:#bf0227; stroke:none;" d="M127.667 150.333L128.333 150.667L127.667 150.333M132.667 150.333L133.333 150.667L132.667 150.333z"/>
<path style="fill:#e4d35e; stroke:none;" d="M149 150L150 151L149 150z"/>
<path style="fill:#43362f; stroke:none;" d="M195 150L196 151L195 150z"/>
<path style="fill:#bf0227; stroke:none;" d="M204 150L205 151L204 150z"/>
<path style="fill:#43362f; stroke:none;" d="M95 157L95 158L116 152L95 157M123.333 151.667L123.667 152.333L123.333 151.667M136.333 151.667L136.667 152.333L136.333 151.667z"/>
<path style="fill:#239f47; stroke:none;" d="M148 151L149 152L148 151M178 151L179 152L178 151z"/>
<path style="fill:#43362f; stroke:none;" d="M207 151L209 162L207 151z"/>
<path style="fill:#e4d35e; stroke:none;" d="M150 152L151 153L150 152z"/>
<path style="fill:#fafafb; stroke:none;" d="M151 152L150 155L151 152z"/>
<path style="fill:#e4d35e; stroke:none;" d="M165.667 152.333L166.333 152.667L165.667 152.333z"/>
<path style="fill:#239f47; stroke:none;" d="M180 152L181 153L180 152z"/>
<path style="fill:#fafafb; stroke:none;" d="M181 152L180 153L180 154L181 155L182 155L183 154L183 153L181 152z"/>
<path style="fill:#43362f; stroke:none;" d="M122 153L123 154L122 153M137 153L138 154L137 153z"/>
<path style="fill:#e4d35e; stroke:none;" d="M152 153L153 154L152 153z"/>
<path style="fill:#239f47; stroke:none;" d="M164 153L165 154L164 153z"/>
<path style="fill:#fafafb; stroke:none;" d="M165 153L165 155L167 155L167 153L165 153z"/>
<path style="fill:#239f47; stroke:none;" d="M167 153L168 154L167 153z"/>
<path style="fill:#43362f; stroke:none;" d="M194.333 153.667L194.667 154.333L194.333 153.667z"/>
<path style="fill:#bf0227; stroke:none;" d="M213 153L213 159L222 157L213 153z"/>
<path style="fill:#43362f; stroke:none;" d="M216 153L216 154L227 157L227 158L225 158L225 159L230 158L227 163L227 164L231 165L231 159L233 159L233 163L234 163L234 160L239 161L239 160L216 153M136 154L136 162L137 162L136 154z"/>
<path style="fill:#239f47; stroke:none;" d="M152 154L153 155L152 154M175 154L175 158L176 158L175 154z"/>
<path style="fill:#e4d35e; stroke:none;" d="M180 154L181 155L180 154z"/>
<path style="fill:#239f47; stroke:none;" d="M182 154L183 155L182 154M111 157L111 158L119 161L119 155L111 157z"/>
<path style="fill:#43362f; stroke:none;" d="M123 155L123 161L124 161L123 155z"/>
<path style="fill:#fafafb; stroke:none;" d="M147 156L150 158L147 156z"/>
<path style="fill:#e4d35e; stroke:none;" d="M149 156L150 157L149 156z"/>
<path style="fill:#fafafb; stroke:none;" d="M153 156L153 158L155 158L155 156L153 156z"/>
<path style="fill:#239f47; stroke:none;" d="M155.333 156.667L155.667 157.333L155.333 156.667z"/>
<path style="fill:#fafafb; stroke:none;" d="M162 156L162 158L164 158L164 156L162 156z"/>
<path style="fill:#239f47; stroke:none;" d="M164 156L165 157L164 156M167 156L168 157L167 156z"/>
<path style="fill:#fafafb; stroke:none;" d="M168 156L168 158L170 158L170 156L168 156z"/>
<path style="fill:#e4d35e; stroke:none;" d="M177 156L178 157L177 156z"/>
<path style="fill:#fafafb; stroke:none;" d="M177 158L180 156L177 158M183 156L183 158L185 158L185 156L183 156z"/>
<path style="fill:#239f47; stroke:none;" d="M185.333 156.667L185.667 157.333L185.333 156.667M145 157L146 158L145 157M152 157L153 158L152 157z"/>
<path style="fill:#e4d35e; stroke:none;" d="M164 157L165 158L164 157M167 157L168 158L167 157z"/>
<path style="fill:#43362f; stroke:none;" d="M215 158L215 159L222 158L215 158M111.667 158.333L112.333 158.667L111.667 158.333z"/>
<path style="fill:#e4d35e; stroke:none;" d="M148 158L149 159L148 158z"/>
<path style="fill:#239f47; stroke:none;" d="M153.667 158.333L154.333 158.667L153.667 158.333M160 158L161 159L160 158M162 158L163 159L162 158z"/>
<path style="fill:#e4d35e; stroke:none;" d="M163 158L164 159L163 158M168 158L169 159L168 158z"/>
<path style="fill:#239f47; stroke:none;" d="M169 158L170 159L169 158M171 158L172 159L171 158z"/>
<path style="fill:#e4d35e; stroke:none;" d="M178 158L179 159L178 158z"/>
<path style="fill:#239f47; stroke:none;" d="M183 158L184 159L183 158z"/>
<path style="fill:#e4d35e; stroke:none;" d="M184 158L185 159L184 158z"/>
<path style="fill:#43362f; stroke:none;" d="M96 160L96 161L102 160L108 183L107 183L106 180L105 180C107.451 187.306 117.601 179.251 123 179L121 167L120 167L118 169L118 170L120 172L104 165L107 164L107 163L103 159L96 160M107 159L107 160L117 164L117 163L107 159M113.667 159.333L114.333 159.667L113.667 159.333z"/>
<path style="fill:#239f47; stroke:none;" d="M146 159L147 160L146 159M176 159L177 160L176 159z"/>
<path style="fill:#e4d35e; stroke:none;" d="M186 159L187 160L186 159z"/>
<path style="fill:#43362f; stroke:none;" d="M215 161L215 162L225 160L215 161z"/>
<path style="fill:#239f47; stroke:none;" d="M147 160L148 161L147 160M177 160L178 161L177 160z"/>
<path style="fill:#e4d35e; stroke:none;" d="M185 160L186 161L185 160z"/>
<path style="fill:#43362f; stroke:none;" d="M100 161L104 180L105 180L100 161M126.667 161.333L127.333 161.667L126.667 161.333M132 161L133 162L132 161M134 161L135 162L134 161z"/>
<path style="fill:#e4d35e; stroke:none;" d="M148 161L149 162L148 161z"/>
<path style="fill:#239f47; stroke:none;" d="M149 161L150 162L149 161M153 161L154 162L153 161M163 161L164 162L163 161M167.667 161.333L168.333 161.667L167.667 161.333M179 161L180 162L179 161M183 161L184 162L183 161z"/>
<path style="fill:#43362f; stroke:none;" d="M194.667 161.333L195.333 161.667L194.667 161.333M197 161L198 162L197 161M199 161L200 162L199 161M203 161L204 162L203 161M205 161L206 162L205 161M123 163L123 164L138 164L123 163z"/>
<path style="fill:#239f47; stroke:none;" d="M142 163L143 164L142 163M190 163L191 164L190 163z"/>
<path style="fill:#43362f; stroke:none;" d="M232 163L227 179L227 180L232 183L232 163M107 164L107 165L118 169L118 168L107 164M142.333 164.667L142.667 165.333L142.333 164.667M190.333 164.667L190.667 165.333L190.333 164.667M216 166L216 167L227 165L216 166M238 164L234 182L235 182L238 164z"/>
<path style="fill:#e4d35e; stroke:none;" d="M143 165L144 166L143 165z"/>
<path style="fill:#239f47; stroke:none;" d="M159 165L159 166L171 166L171 176C175.391 165.536 166.922 165 159 165z"/>
<path style="fill:#e4d35e; stroke:none;" d="M171 165L172 166L171 165z"/>
<path style="fill:#43362f; stroke:none;" d="M225 166L225 167L229 166L226 177L217 171L227 179L230 165L225 166z"/>
<path style="fill:#239f47; stroke:none;" d="M104 166L109 182L122 177C118.415 171.32 110.043 168.516 104 166M143 166L144 167L143 166z"/>
<path style="fill:#43362f; stroke:none;" d="M159 166C159.136 182.387 171 182.437 171 166L159 166z"/>
<path style="fill:#239f47; stroke:none;" d="M189 166L190 167L189 166z"/>
<path style="fill:#bf0227; stroke:none;" d="M228 166L217 170L217 171L226 177L228 166z"/>
<path style="fill:#43362f; stroke:none;" d="M143 167L144 168L143 167z"/>
<path style="fill:#e4d35e; stroke:none;" d="M161 167L162 168L161 167z"/>
<path style="fill:#fafafb; stroke:none;" d="M161 169L164 169L163 167L161 169z"/>
<path style="fill:#e4d35e; stroke:none;" d="M163 167L164 168L163 167z"/>
<path style="fill:#fafafb; stroke:none;" d="M167 167L167 169L169 169L169 167L167 167z"/>
<path style="fill:#239f47; stroke:none;" d="M169 167L170 168L169 167z"/>
<path style="fill:#43362f; stroke:none;" d="M189 167L187 172L188 172L189 167M95 168L99 184L100 184L95 168z"/>
<path style="fill:#239f47; stroke:none;" d="M144 168L145 169L144 168z"/>
<path style="fill:#e4d35e; stroke:none;" d="M169 168L170 169L169 168z"/>
<path style="fill:#239f47; stroke:none;" d="M188 168L189 169L188 168z"/>
<path style="fill:#43362f; stroke:none;" d="M211 168L211 173L212 173L211 168M144 169L146 172L144 169z"/>
<path style="fill:#239f47; stroke:none;" d="M161 169L162 170L161 169z"/>
<path style="fill:#e4d35e; stroke:none;" d="M162 169L163 170L162 169M167.667 169.333L168.333 169.667L167.667 169.333z"/>
<path style="fill:#239f47; stroke:none;" d="M145 170L146 171L145 170M165 170L166 171L165 170M187 170L188 171L187 170z"/>
<path style="fill:#fafafb; stroke:none;" d="M164 171L164 173L166 173L166 171L164 171z"/>
<path style="fill:#e4d35e; stroke:none;" d="M166.333 171.667L166.667 172.333L166.333 171.667z"/>
<path style="fill:#239f47; stroke:none;" d="M146 172L147 173L146 172M186 172L187 173L186 172z"/>
<path style="fill:#43362f; stroke:none;" d="M213 172L234 189L213 172M146 173L148 175L146 173z"/>
<path style="fill:#e4d35e; stroke:none;" d="M147 173L148 174L147 173z"/>
<path style="fill:#239f47; stroke:none;" d="M159 173L159 176L160 176L159 173M165 173L166 174L165 173z"/>
<path style="fill:#e4d35e; stroke:none;" d="M185 173L186 174L185 173z"/>
<path style="fill:#43362f; stroke:none;" d="M186 173L187 174L186 173M210 173L210 176L211 176L210 173z"/>
<path style="fill:#239f47; stroke:none;" d="M161 174L162 175L161 174z"/>
<path style="fill:#fafafb; stroke:none;" d="M162 174L161 175L161 176L162 177L163 177L164 176L164 175L162 174z"/>
<path style="fill:#239f47; stroke:none;" d="M163 174L164 175L163 174z"/>
<path style="fill:#e4d35e; stroke:none;" d="M167 174L168 175L167 174z"/>
<path style="fill:#fafafb; stroke:none;" d="M168 174L167 177L168 174z"/>
<path style="fill:#43362f; stroke:none;" d="M185 174L186 175L185 174z"/>
<path style="fill:#239f47; stroke:none;" d="M148 175L154 181L148 175M166 175L167 176L166 175z"/>
<path style="fill:#e4d35e; stroke:none;" d="M169 175L170 176L169 175z"/>
<path style="fill:#43362f; stroke:none;" d="M184 175L179 180L179 181L184 175M148 176L149 177L148 176z"/>
<path style="fill:#e4d35e; stroke:none;" d="M159 176L160 177L159 176z"/>
<path style="fill:#239f47; stroke:none;" d="M161 176L162 177L161 176z"/>
<path style="fill:#e4d35e; stroke:none;" d="M163 176L164 177L163 176z"/>
<path style="fill:#239f47; stroke:none;" d="M183 176L184 177L183 176z"/>
<path style="fill:#43362f; stroke:none;" d="M209 176L209 179L210 179L209 176M149 177L150 178L149 177z"/>
<path style="fill:#239f47; stroke:none;" d="M170 177L171 178L170 177M182 177L183 178L182 177z"/>
<path style="fill:#43362f; stroke:none;" d="M150 178L151 179L150 178z"/>
<path style="fill:#239f47; stroke:none;" d="M169 178L170 179L169 178M181 178L182 179L181 178z"/>
<path style="fill:#43362f; stroke:none;" d="M123 179L121 181L121 182L125 183L123 179M151 179L152 180L151 179z"/>
<path style="fill:#239f47; stroke:none;" d="M162 179L163 180L162 179z"/>
<path style="fill:#e4d35e; stroke:none;" d="M168 179L169 180L168 179z"/>
<path style="fill:#239f47; stroke:none;" d="M180 179L181 180L180 179z"/>
<path style="fill:#43362f; stroke:none;" d="M208 179L205 187L207 185L208 185L211 187L210 182L210 181L208 179M144 180L145 181L144 180M146 180L147 181L146 180M152 180L153 181L152 180z"/>
<path style="fill:#e4d35e; stroke:none;" d="M164.667 180.333L165.333 180.667L164.667 180.333z"/>
<path style="fill:#43362f; stroke:none;" d="M186 180L187 185L188 185L189 185L186 180z"/>
<path style="fill:#e4d35e; stroke:none;" d="M144 181L146 186L141 185L143 190L139 188L138 189L142 195L149 200L151 200L158 188L151 183L144 181z"/>
<path style="fill:#43362f; stroke:none;" d="M154 181L156 183L154 181z"/>
<path style="fill:#e4d35e; stroke:none;" d="M155 181L156 182L155 181z"/>
<path style="fill:#239f47; stroke:none;" d="M177 181L178 182L177 181z"/>
<path style="fill:#43362f; stroke:none;" d="M178 181L179 182L178 181z"/>
<path style="fill:#e4d35e; stroke:none;" d="M180 183L173 188L182 200L189 195L193 189L190 184L185 185L188 183L180 183z"/>
<path style="fill:#43362f; stroke:none;" d="M103 188L103 189L121 183L103 188M143 182L144 183L143 182M148 182L149 183L148 182z"/>
<path style="fill:#239f47; stroke:none;" d="M156 182L157 183L156 182M175 182L176 183L175 182z"/>
<path style="fill:#43362f; stroke:none;" d="M176.667 182.333L177.333 182.667L176.667 182.333M210 182L228 197L210 182M125.333 183.667L125.667 184.333L125.333 183.667M149 183L150 184L149 183M157.667 183.333L158.333 183.667L157.667 183.333z"/>
<path style="fill:#239f47; stroke:none;" d="M159 183L160 184L159 183M173 183L174 184L173 183z"/>
<path style="fill:#43362f; stroke:none;" d="M174.667 183.333L175.333 183.667L174.667 183.333M179 183L180 184L179 183M181 183L182 184L181 183M103 184L103 185L106 185L103 184M141 184L141 185L146 186L141 184z"/>
<path style="fill:#bf0227; stroke:none;" d="M145 184L146 185L145 184z"/>
<path style="fill:#43362f; stroke:none;" d="M160.667 184.333L161.333 184.667L160.667 184.333z"/>
<path style="fill:#239f47; stroke:none;" d="M162.667 184.333L163.333 184.667L162.667 184.333z"/>
<path style="fill:#e4d35e; stroke:none;" d="M164 184L164 185L168 185L164 184z"/>
<path style="fill:#239f47; stroke:none;" d="M168.667 184.333L169.333 184.667L168.667 184.333z"/>
<path style="fill:#43362f; stroke:none;" d="M170 184L170 185L173 185L170 184z"/>
<path style="fill:#bf0227; stroke:none;" d="M185 184L187 186L187 184L185 184z"/>
<path style="fill:#43362f; stroke:none;" d="M126 185L124 186L124 187L126 185z"/>
<path style="fill:#bf0227; stroke:none;" d="M144 185L145 186L144 185z"/>
<path style="fill:#43362f; stroke:none;" d="M152 185L153 186L152 185M164 185L164 186L168 186L164 185M178 185L179 186L178 185M190 185L190 188L191 188L190 185M105 194L105 195L124 188L105 194M127 187L121 190L121 191L130 191L127 187M139 187L140 188L139 187M141 187L140 189L142 189L141 187M155 187L156 188L155 187M204 187L202 191L217 192L204 187M211 187L212 188L211 187z"/>
<path style="fill:#bf0227; stroke:none;" d="M142.333 188.667L142.667 189.333L142.333 188.667z"/>
<path style="fill:#43362f; stroke:none;" d="M156 188L157 189L156 188M174 188L175 189L174 188M188 188L190 190L190 188L188 188M192 188L193 189L192 188z"/>
<path style="fill:#239f47; stroke:none;" d="M127 189L128 190L127 189z"/>
<path style="fill:#43362f; stroke:none;" d="M137 189L138 190L137 189M138 190L139 191L138 190M192.333 190.667L192.667 191.333L192.333 190.667M119.667 191.333L120.333 191.667L119.667 191.333M130 191L131 192L130 191M156 191L157 192L156 191M201 191L202 192L201 191M112 194L116 198L115 194L135 196C130.371 190.725 118.306 192.053 112 194M175 192L176 193L175 192M190 192L191 193L190 192M199 195L219 193C214.199 192.472 201.898 191.02 199 195M143 194L144 195L143 194M187 194L188 195L187 194M219 194C209.167 206.905 193.532 217.65 177 219L177 220C188.394 219.503 200.305 213.918 209 206.674C211.036 204.978 217.322 196.673 220.379 198.207C224.137 200.093 214.218 208.067 212.999 209.076C203.174 217.212 190.918 223.945 178 225L178 226C196.543 225.192 213.689 212.89 225 199L219 194M110.667 195.333L111.333 195.667L110.667 195.333M117 195L121 199L117 195M151 195L152 196L151 195M186 195L187 196L186 195M198 195L199 196L198 195M215 195L214 197L215 195M135 196L136 197L135 196M195 198L198 196L195 198M136 197L137 198L136 197M147 197L148 198L147 197M183 197L184 198L183 197M213 197L191 200L191 201C195.519 200.161 213.123 202.132 213 197M116 198C124.58 210.172 141.04 219.348 156 220L156 219C139.506 217.653 128.781 206.968 116 198M121 199L121 200L140 200L121 199M151 198L152 199L151 198M109 199C118.028 213.431 137.842 225.252 155 226L155 225C135.139 223.378 124.071 209.616 109 199M180 199L181 200L180 199M140 200L141 201L140 200M149 200L150 201L149 200M181 200L182 201L181 200M123 201L125 203L123 201M141.667 201.333L142.333 201.667L141.667 201.333M189.667 201.333L190.333 201.667L189.667 201.333M209 201L208 203L209 201M125 203C130.818 210.039 141.051 214.678 150 216L150 215L128 205L128 204L158 207C147.368 201.849 136.468 203 125 203M185 203L185 204L204 206L208 203L185 203z"/>
<path style="fill:#239f47; stroke:none;" d="M128 204L128 205C137.275 211.137 146.891 215.565 158 217L158 207L128 204z"/>
<path style="fill:#43362f; stroke:none;" d="M179 205L179 206L185 205L179 205M196 210L196 211L204 206L196 210z"/>
<path style="fill:#e4d35e; stroke:none;" d="M159 208L159 230L162 230L162 208L159 208M163 208L163 230L168 230L168 208L163 208M169 208L169 230L172 230L171 208L169 208z"/>
<path style="fill:#43362f; stroke:none;" d="M194.667 211.333L195.333 211.667L194.667 211.333M189 213L189 214L194 213L189 213z"/>
</svg>
